<?xml version="1.0" standalone="no"?>
<!DOCTYPE svg PUBLIC "-//W3C//DTD SVG 20010904//EN"
 "http://www.w3.org/TR/2001/REC-SVG-20010904/DTD/svg10.dtd">
<svg version="1.0" xmlns="http://www.w3.org/2000/svg"
 width="3223.000000pt" height="3080.000000pt" viewBox="0 0 3223.000000 3080.000000"
 preserveAspectRatio="xMidYMid meet">

<g transform="translate(0.000000,3080.000000) scale(0.100000,-0.100000)"
fill="#000000" stroke="none">
<path d="M9280 30791 c-8 -5 -71 -16 -140 -26 -69 -9 -150 -24 -180 -32 -30
-8 -71 -19 -90 -23 -19 -5 -53 -14 -75 -20 -22 -6 -53 -15 -70 -19 -34 -9
-210 -68 -240 -81 -11 -4 -41 -17 -67 -29 -26 -12 -50 -21 -53 -21 -2 0 -44
-18 -92 -41 -49 -22 -104 -48 -123 -57 -130 -61 -362 -198 -585 -347 -286
-191 -267 -176 -555 -421 -14 -12 -59 -50 -100 -85 -64 -55 -292 -246 -355
-298 -11 -9 -67 -57 -124 -106 -57 -50 -122 -104 -143 -122 -22 -18 -65 -54
-97 -81 -68 -60 -177 -151 -336 -283 -66 -55 -158 -132 -204 -172 -182 -157
-207 -178 -481 -407 -80 -67 -167 -141 -195 -165 -27 -24 -63 -54 -80 -66 -16
-13 -48 -40 -70 -60 -22 -20 -71 -62 -110 -94 -38 -32 -88 -75 -111 -94 -22
-20 -90 -76 -150 -126 -106 -88 -203 -170 -314 -265 -75 -65 -128 -109 -181
-147 -24 -18 -84 -64 -134 -103 -145 -115 -439 -320 -635 -445 -19 -12 -60
-38 -90 -57 -30 -19 -80 -48 -110 -64 -30 -16 -73 -41 -96 -56 -48 -31 -382
-202 -469 -240 -33 -15 -91 -41 -130 -58 -84 -38 -154 -67 -215 -87 -25 -8
-63 -22 -85 -32 -56 -25 -318 -106 -390 -121 -33 -7 -69 -16 -80 -20 -19 -8
-33 -11 -150 -30 -27 -5 -84 -16 -125 -24 -108 -22 -172 -20 -227 6 -37 17
-64 22 -127 21 -74 -1 -87 -4 -141 -36 -167 -97 -343 -366 -499 -757 -21 -52
-42 -104 -46 -115 -9 -20 -40 -125 -80 -265 -12 -41 -26 -88 -31 -104 -5 -16
-9 -42 -9 -57 0 -15 -4 -31 -10 -34 -5 -3 -10 -21 -10 -39 0 -18 -4 -46 -10
-62 -5 -16 -16 -103 -25 -194 -8 -90 -20 -169 -25 -174 -13 -13 -14 -588 -1
-601 5 -6 14 -77 21 -160 10 -142 21 -223 40 -325 5 -25 12 -61 15 -80 8 -49
24 -114 45 -190 10 -36 28 -103 40 -150 27 -99 47 -167 60 -195 5 -11 19 -49
31 -85 12 -36 35 -96 51 -135 16 -38 36 -87 45 -109 19 -46 114 -233 168 -331
194 -351 487 -730 816 -1055 246 -243 344 -328 642 -555 208 -158 596 -411
847 -553 291 -163 364 -203 475 -256 55 -27 105 -56 112 -65 12 -15 93 -178
93 -187 0 -3 23 -53 51 -112 28 -59 67 -141 86 -182 19 -41 54 -115 78 -165
73 -151 105 -225 105 -239 0 -8 3 -16 8 -18 6 -3 52 -96 123 -253 116 -256
246 -471 353 -583 96 -100 214 -185 392 -280 22 -12 24 -19 23 -80 0 -37 -7
-110 -15 -162 -21 -138 -23 -150 -39 -325 -9 -88 -31 -295 -51 -460 -20 -165
-40 -354 -45 -420 -5 -66 -14 -142 -20 -170 -19 -90 -73 -668 -89 -950 -6
-110 -16 -231 -21 -270 -5 -38 -15 -205 -23 -370 -8 -165 -19 -327 -25 -360
-6 -33 -15 -280 -21 -550 -5 -269 -15 -733 -22 -1030 -9 -430 -9 -637 1 -1020
26 -965 41 -1412 50 -1505 5 -52 12 -192 16 -310 4 -118 11 -234 16 -256 5
-23 18 -160 29 -305 11 -145 27 -327 35 -404 8 -77 22 -210 30 -295 8 -85 19
-189 25 -230 6 -41 15 -111 19 -155 10 -91 66 -494 80 -570 5 -27 14 -93 21
-145 6 -52 15 -111 20 -130 12 -49 21 -95 30 -170 5 -36 13 -87 19 -115 14
-67 60 -307 72 -375 14 -80 26 -134 47 -230 60 -261 94 -412 114 -505 6 -27
14 -59 18 -70 10 -25 21 -67 60 -225 17 -69 37 -145 44 -170 8 -25 19 -65 26
-90 7 -25 16 -54 20 -65 7 -19 26 -79 110 -355 18 -58 36 -114 41 -125 5 -11
36 -96 68 -190 74 -213 71 -204 86 -240 8 -16 38 -96 69 -177 30 -80 67 -172
81 -205 15 -32 40 -89 55 -128 54 -134 300 -638 389 -795 20 -36 51 -90 67
-120 51 -91 309 -494 391 -610 228 -321 564 -712 783 -910 46 -41 99 -90 119
-108 20 -19 97 -84 171 -145 74 -61 137 -114 140 -117 3 -3 41 -32 85 -64 44
-31 109 -80 145 -108 112 -86 241 -141 410 -172 46 -9 89 -21 94 -26 6 -6 111
-10 261 -10 196 0 258 3 281 14 16 8 70 17 119 21 106 7 220 22 290 36 28 5
73 14 100 19 104 19 248 53 395 95 52 15 111 31 130 35 60 15 101 27 225 65
66 21 147 45 180 55 33 9 67 19 75 23 29 11 186 66 290 102 58 20 114 40 125
45 11 5 58 23 105 40 125 46 275 107 358 146 41 19 76 34 78 34 5 0 146 65
204 95 238 121 367 196 431 250 33 27 109 33 574 45 311 8 663 30 815 50 41 6
129 17 195 25 187 22 196 23 260 35 33 5 83 14 110 19 133 23 402 89 523 127
61 20 267 102 332 133 268 126 621 424 830 701 123 163 221 335 294 520 21 52
46 114 57 137 10 24 19 47 19 53 0 6 4 18 9 28 5 9 19 62 31 117 13 55 29 123
36 150 13 48 35 171 55 305 22 148 31 475 20 726 -10 237 -15 303 -40 489 -19
153 -66 434 -92 555 -6 30 -15 75 -19 100 -4 25 -20 90 -34 145 -14 55 -44
174 -67 265 -49 201 -45 187 -108 395 -28 94 -61 202 -72 240 -12 39 -25 79
-29 90 -4 11 -15 38 -23 60 -8 22 -29 87 -47 145 -17 58 -35 114 -40 125 -12
27 -53 146 -102 290 -22 66 -44 129 -49 140 -39 98 -139 429 -139 463 0 12 -4
23 -9 26 -5 3 -11 18 -14 33 -3 16 -17 71 -31 123 -31 110 -87 376 -101 480
-4 25 -10 70 -15 100 -41 261 -36 530 11 622 5 10 9 24 9 33 0 28 47 121 81
160 45 51 86 66 199 72 152 9 334 -25 480 -89 49 -22 63 -28 130 -55 110 -44
285 -139 415 -226 270 -181 512 -420 663 -655 26 -40 62 -96 81 -124 35 -54
163 -317 198 -408 12 -30 32 -89 44 -130 12 -41 32 -109 45 -150 25 -79 39
-138 75 -335 20 -108 23 -160 27 -520 2 -255 0 -445 -8 -525 -12 -139 -51
-405 -76 -520 -8 -41 -19 -95 -24 -120 -15 -79 -21 -104 -30 -140 -23 -84 -80
-416 -102 -595 -17 -130 -17 -414 0 -535 24 -178 52 -338 78 -446 14 -60 28
-121 31 -137 3 -15 9 -30 14 -33 5 -3 9 -13 9 -22 0 -18 101 -291 136 -367 22
-50 121 -236 162 -308 26 -44 137 -212 183 -277 166 -231 392 -460 710 -720
104 -85 349 -248 492 -327 193 -107 296 -155 517 -240 115 -44 391 -123 535
-152 33 -7 76 -16 95 -21 19 -5 96 -16 170 -25 74 -9 167 -20 205 -25 114 -15
685 -12 790 4 50 8 137 19 195 26 58 6 121 15 140 20 19 5 62 14 95 21 110 22
403 104 460 128 53 23 93 39 125 51 129 48 223 92 375 175 91 50 292 177 330
208 6 5 53 40 105 79 239 179 505 442 715 708 33 41 65 81 73 89 8 8 24 30 38
50 13 20 36 54 53 76 114 157 326 500 423 685 35 69 70 134 76 145 16 27 153
344 163 375 4 14 24 70 44 125 20 55 40 114 45 130 4 17 15 50 23 75 24 67 63
222 85 335 11 55 23 114 27 130 26 126 49 446 49 685 -1 256 -23 622 -52 850
-123 952 -122 1361 3 1670 104 256 269 479 520 703 93 83 114 96 295 184 107
52 249 122 315 154 66 32 167 87 225 122 58 34 116 69 129 77 164 99 506 351
631 466 25 22 74 67 110 100 209 190 510 557 631 769 12 22 37 67 56 100 30
53 119 234 143 290 4 11 15 38 25 60 9 22 20 49 25 60 29 70 55 146 89 265 12
41 28 95 35 120 20 64 37 141 61 280 28 153 46 362 53 606 6 163 10 215 22
231 91 127 121 167 169 219 139 150 254 294 373 466 48 70 88 130 88 133 0 3
11 22 24 43 74 115 296 561 296 596 0 7 3 16 7 19 12 13 82 220 104 312 42
170 51 242 56 465 5 208 0 270 -29 405 -13 63 -47 182 -60 215 -5 14 -21 57
-34 97 -29 87 -54 131 -111 200 -151 179 -367 231 -628 151 -38 -12 -74 -25
-79 -30 -6 -4 -16 -8 -23 -8 -7 0 -38 -12 -70 -26 -31 -15 -86 -37 -122 -51
-36 -13 -83 -33 -106 -43 -88 -40 -283 -117 -325 -129 -25 -7 -54 -17 -65 -21
-11 -4 -47 -13 -80 -20 -33 -6 -79 -16 -102 -22 -46 -11 -207 -5 -318 12 -38
6 -95 15 -125 20 -76 12 -152 29 -159 36 -3 3 -9 175 -12 382 -4 207 -13 445
-19 527 -7 83 -13 174 -14 204 l-1 53 40 15 c178 67 268 108 400 183 22 13 49
28 60 34 39 22 211 140 290 199 160 121 396 333 651 584 l172 169 118 38 c66
21 128 41 139 46 11 4 85 29 165 55 160 51 299 100 345 120 132 57 181 80 333
157 95 48 193 101 218 118 25 16 47 30 49 30 2 0 23 13 47 28 24 16 59 38 78
48 50 27 304 199 372 250 31 24 59 44 63 44 3 0 23 15 43 34 20 19 62 53 92
77 207 161 491 446 665 669 32 41 61 77 64 80 15 13 183 273 216 335 21 39 46
81 55 95 9 14 24 41 32 60 9 19 33 71 53 115 38 82 60 133 76 173 5 12 13 32
18 45 20 50 51 147 71 222 12 44 26 96 32 115 5 19 12 51 15 70 2 19 8 44 13
55 5 11 11 36 13 55 3 19 10 67 16 105 6 39 15 133 21 210 6 77 15 144 20 149
13 13 13 428 0 458 -5 13 -19 113 -30 223 -11 110 -25 223 -30 250 -6 28 -15
77 -20 110 -11 66 -19 103 -50 245 -32 144 -74 203 -175 247 -27 12 -99 43
-160 69 -369 160 -817 438 -1159 719 -294 241 -666 590 -865 810 -30 33 -84
92 -120 130 -84 89 -166 183 -270 310 -45 55 -101 122 -123 148 -23 26 -48 58
-57 70 -8 12 -36 47 -61 77 -71 84 -318 414 -386 515 -316 473 -479 693 -671
905 -17 19 -41 47 -52 61 -28 36 -366 369 -471 464 -193 175 -400 340 -650
519 -130 93 -175 123 -316 217 -21 14 -73 46 -114 70 -41 24 -76 47 -78 51 -2
5 -8 8 -14 8 -5 0 -22 8 -36 18 -15 11 -63 38 -107 62 -44 23 -87 48 -95 55
-8 7 -67 38 -130 70 -63 31 -158 79 -210 105 -52 26 -129 62 -170 80 -41 18
-97 42 -125 55 -27 12 -120 48 -205 79 -85 31 -164 61 -175 65 -28 11 -67 23
-250 75 -235 67 -278 78 -370 96 -33 6 -89 18 -125 25 -36 8 -139 24 -230 35
-91 12 -190 25 -220 30 -155 26 -808 20 -1045 -9 -124 -16 -339 -49 -385 -59
-25 -6 -74 -16 -110 -22 -36 -7 -76 -15 -90 -20 -30 -9 -68 -20 -215 -60 -121
-33 -269 -78 -300 -90 -11 -4 -33 -13 -50 -18 -74 -26 -313 -115 -342 -128
-18 -8 -48 -20 -65 -28 -18 -8 -76 -33 -128 -56 -92 -39 -400 -190 -410 -200
-14 -14 -90 -50 -105 -50 -10 0 -113 96 -230 214 -117 117 -246 241 -286 276
-41 34 -94 81 -119 104 -25 23 -59 53 -76 66 -17 14 -73 59 -125 100 -243 195
-538 399 -817 565 -194 116 -519 280 -712 360 -36 15 -85 36 -109 47 -67 30
-266 106 -351 134 -41 14 -84 29 -95 33 -34 14 -296 92 -395 116 -113 29 -134
34 -165 40 -16 3 -46 10 -65 15 -64 16 -336 67 -427 81 -35 5 -93 14 -130 20
-503 82 -1384 91 -1988 20 -146 -17 -330 -45 -398 -61 -24 -5 -83 -17 -133
-26 -49 -9 -108 -20 -131 -25 -24 -5 -62 -13 -85 -18 -58 -12 -225 -57 -324
-87 -44 -13 -89 -24 -100 -24 -11 0 -24 -4 -29 -8 -6 -5 -30 -14 -55 -22 -25
-7 -85 -28 -135 -45 -49 -18 -119 -43 -155 -55 -62 -21 -82 -28 -132 -49 -13
-5 -70 -28 -128 -51 -419 -168 -869 -419 -1300 -725 -52 -37 -107 -73 -123
-81 -26 -14 -27 -14 -42 18 -7 18 -29 76 -48 128 -97 266 -250 545 -401 730
-188 231 -465 437 -711 529 -33 13 -69 27 -80 31 -11 5 -42 14 -70 20 -240 53
-236 53 -465 56 -124 2 -232 0 -240 -5z m382 -502 c199 -29 269 -50 420 -124
192 -95 337 -244 538 -555 24 -37 86 -167 130 -275 5 -11 16 -36 24 -55 13
-30 34 -94 107 -327 12 -38 24 -23 -151 -182 -161 -145 -498 -486 -605 -610
-209 -243 -380 -466 -539 -706 -58 -88 -113 -168 -121 -177 -8 -10 -15 -20
-15 -23 0 -2 -34 -62 -76 -132 -66 -110 -113 -197 -223 -408 -11 -22 -44 -89
-72 -150 -80 -173 -96 -210 -144 -335 -20 -52 -43 -108 -50 -125 -21 -47 -51
-131 -86 -240 -17 -55 -41 -125 -51 -155 -11 -30 -24 -71 -28 -90 -5 -19 -23
-89 -40 -155 -39 -148 -49 -189 -57 -240 -3 -22 -10 -48 -15 -58 -5 -10 -14
-42 -19 -70 -73 -410 -100 -615 -119 -912 -5 -82 -14 -193 -19 -245 -13 -122
-13 -633 0 -725 5 -38 14 -140 20 -225 18 -291 44 -503 98 -805 5 -27 12 -68
16 -90 4 -22 13 -60 20 -85 7 -25 18 -70 25 -100 6 -30 15 -71 20 -90 5 -19
16 -64 25 -100 33 -130 54 -207 83 -290 16 -47 41 -121 55 -165 41 -126 68
-199 78 -209 5 -6 9 -16 9 -23 0 -7 9 -32 19 -56 10 -23 30 -71 44 -107 14
-36 41 -99 60 -140 19 -41 45 -97 57 -125 62 -140 181 -365 279 -529 39 -65
71 -121 71 -124 0 -3 11 -20 25 -38 14 -18 25 -35 25 -39 0 -6 221 -334 245
-363 8 -9 51 -66 96 -127 76 -101 205 -263 220 -275 3 -3 32 -36 64 -75 33
-38 66 -77 75 -85 10 -8 40 -42 67 -75 82 -97 256 -270 423 -419 85 -76 190
-170 233 -208 42 -39 77 -77 77 -85 0 -14 -31 -63 -55 -89 -5 -6 -37 -46 -70
-89 -61 -79 -74 -95 -225 -271 -194 -228 -605 -618 -707 -672 -12 -7 -27 -18
-35 -24 -20 -20 -105 -78 -113 -78 -3 0 -21 -11 -38 -24 -61 -45 -275 -148
-372 -178 -222 -69 -312 -72 -580 -18 -33 7 -80 16 -105 20 -25 5 -74 16 -110
25 -36 9 -78 18 -95 21 -16 3 -46 9 -65 14 -19 5 -109 23 -200 40 -91 17 -179
35 -196 40 -17 6 -43 10 -58 10 -15 0 -37 5 -49 12 -12 6 -44 15 -72 20 -27 4
-70 12 -95 17 -25 5 -72 14 -105 21 -33 7 -78 16 -100 20 -65 13 -157 31 -205
41 -116 21 -137 26 -170 36 -19 7 -57 16 -85 21 -27 6 -77 15 -110 22 -33 6
-78 15 -100 20 -22 5 -67 14 -100 20 -33 6 -78 15 -100 20 -22 5 -67 13 -100
20 -33 6 -82 17 -110 25 -27 8 -66 17 -85 20 -58 10 -121 21 -205 39 -44 9
-105 21 -135 27 -30 6 -71 14 -90 19 -19 5 -48 11 -65 14 -16 3 -59 12 -95 21
-36 9 -85 20 -110 25 -44 8 -122 23 -205 40 -22 4 -67 13 -100 20 -33 7 -80
16 -105 21 -25 5 -67 13 -95 17 -27 5 -60 14 -72 20 -12 7 -35 12 -52 12 -16
0 -33 5 -36 10 -3 6 -15 10 -26 10 -26 0 -138 51 -191 88 -107 73 -228 226
-296 372 -19 41 -52 113 -74 160 -22 47 -53 112 -68 145 -15 33 -45 96 -65
140 -21 44 -55 118 -77 165 -21 47 -47 103 -58 125 -10 22 -40 85 -65 140 -58
124 -70 151 -140 300 -31 66 -66 140 -77 165 -46 102 -55 115 -91 151 -21 21
-81 58 -135 84 -53 25 -104 50 -113 55 -42 22 -177 94 -246 131 -43 23 -82 45
-88 49 -5 4 -35 21 -65 37 -62 34 -123 68 -162 92 -14 9 -46 28 -70 42 -94 56
-158 98 -273 176 -208 141 -225 153 -395 284 -50 38 -158 126 -170 139 -3 3
-32 27 -65 55 -190 158 -462 439 -640 660 -79 98 -265 359 -285 400 -3 5 -18
30 -34 55 -54 82 -131 231 -222 425 -47 100 -62 141 -129 340 -52 157 -69 218
-110 410 -20 88 -44 269 -55 405 -4 58 -14 158 -21 223 -10 97 -10 140 1 235
7 64 16 162 21 217 20 231 71 493 123 635 9 25 25 70 35 100 21 62 47 130 66
175 12 27 65 159 84 210 13 31 29 87 36 122 4 18 11 35 16 39 5 3 33 -8 63
-25 46 -26 64 -31 122 -31 59 0 77 5 124 32 32 18 78 34 110 38 71 10 121 18
190 31 30 6 78 15 105 20 28 6 67 14 88 19 20 6 56 15 80 21 121 31 434 132
495 160 24 11 62 27 85 35 23 9 56 22 72 29 17 8 55 23 85 35 84 33 358 164
475 228 149 81 181 99 222 125 24 15 45 27 48 27 4 0 25 13 48 28 23 16 49 31
57 34 12 5 289 185 349 227 163 114 331 235 399 288 117 90 276 215 282 223 3
3 46 39 95 81 50 41 146 122 214 179 68 58 145 123 171 145 27 22 88 74 137
115 48 41 97 82 108 92 83 69 319 268 360 303 28 23 71 60 97 81 26 22 75 64
111 94 35 30 131 111 213 180 82 69 151 127 154 130 3 3 32 27 65 55 33 27 62
52 65 55 3 3 30 25 60 49 30 25 60 49 65 55 6 6 35 31 65 56 30 25 71 59 90
76 19 18 123 105 230 195 204 171 228 191 294 249 23 20 66 56 96 80 30 25 57
47 60 50 3 3 32 28 65 55 33 28 62 52 65 55 3 3 32 28 65 55 33 28 62 52 65
55 69 69 451 350 476 350 4 0 17 8 28 18 43 38 275 180 381 234 229 116 225
114 385 175 152 57 290 97 420 123 30 6 74 15 98 21 23 5 61 9 85 10 23 0 60
4 82 8 59 13 234 13 317 0z m6348 -189 c52 -5 147 -15 210 -21 239 -23 494
-64 740 -118 25 -5 66 -14 91 -20 125 -27 271 -67 301 -82 10 -5 27 -9 38 -9
11 0 28 -4 38 -9 9 -5 85 -31 167 -57 145 -46 162 -52 205 -74 11 -5 26 -10
33 -10 8 0 27 -6 43 -14 16 -8 81 -35 144 -61 215 -87 504 -230 708 -350 485
-285 922 -624 1337 -1040 309 -308 474 -495 693 -788 136 -182 273 -382 353
-517 24 -41 48 -83 54 -92 97 -162 297 -560 355 -709 12 -30 28 -70 37 -89 8
-19 19 -45 24 -57 5 -13 13 -33 18 -45 14 -34 76 -213 101 -293 12 -38 26 -78
31 -87 5 -10 9 -29 9 -42 0 -14 4 -27 9 -30 5 -3 11 -18 14 -33 3 -16 18 -77
35 -138 16 -60 32 -123 36 -140 4 -16 11 -48 17 -70 6 -22 15 -62 20 -90 5
-27 14 -70 19 -95 124 -603 157 -1352 91 -2080 -9 -96 -49 -371 -73 -495 -5
-27 -11 -68 -14 -90 -3 -22 -9 -49 -14 -60 -5 -11 -11 -36 -14 -55 -14 -95
-85 -380 -116 -465 -4 -11 -22 -65 -40 -120 -37 -118 -97 -290 -112 -325 -6
-14 -14 -34 -18 -45 -67 -176 -107 -266 -234 -525 -88 -177 -160 -311 -198
-367 -15 -23 -28 -44 -28 -47 0 -3 -21 -38 -47 -77 -27 -39 -55 -82 -63 -95
-148 -228 -392 -546 -590 -768 -30 -34 -77 -87 -103 -117 -97 -108 -385 -396
-507 -504 -71 -64 -251 -217 -287 -245 -17 -14 -75 -59 -128 -100 -138 -107
-303 -222 -500 -349 -111 -71 -282 -171 -294 -171 -4 0 -30 -22 -57 -48 -38
-36 -66 -81 -120 -192 -40 -80 -89 -190 -109 -245 -20 -55 -40 -109 -45 -120
-7 -20 -16 -50 -40 -135 -7 -25 -16 -56 -20 -70 -20 -60 -64 -270 -81 -385
-49 -330 -44 -815 12 -1105 20 -104 54 -253 69 -300 4 -14 18 -59 30 -100 13
-41 28 -88 36 -105 7 -16 23 -59 37 -95 51 -137 163 -365 224 -458 10 -15 23
-36 30 -47 63 -106 196 -292 318 -445 180 -224 518 -547 790 -755 50 -38 92
-71 95 -75 6 -8 203 -145 329 -229 90 -60 268 -172 336 -211 17 -9 53 -30 80
-47 28 -16 57 -32 65 -36 8 -4 31 -17 50 -29 86 -53 746 -388 764 -388 3 0 43
-17 88 -39 96 -44 128 -59 218 -96 36 -15 81 -34 100 -42 19 -8 45 -19 58 -24
55 -22 73 -30 95 -38 12 -5 67 -26 122 -46 55 -20 108 -41 117 -46 10 -5 26
-9 36 -9 10 0 22 -4 28 -8 5 -5 56 -23 114 -41 58 -18 140 -44 182 -57 42 -13
86 -24 97 -24 11 0 22 -4 25 -9 3 -5 20 -11 38 -14 18 -3 53 -11 78 -17 44
-11 70 -17 175 -40 28 -6 93 -18 145 -26 52 -8 122 -20 155 -25 193 -31 479
-40 665 -21 173 18 375 61 475 102 11 4 40 16 65 25 57 21 263 129 299 156
191 146 288 241 406 397 120 158 217 332 279 498 21 54 42 107 47 116 5 10 9
27 9 37 0 11 4 22 9 25 5 3 11 18 14 33 3 16 10 44 15 63 51 179 89 359 114
545 24 180 34 401 53 1120 7 274 15 337 54 428 20 47 87 118 135 143 78 41
343 26 711 -41 83 -15 166 -29 185 -32 19 -2 44 -8 55 -13 11 -5 38 -11 60
-14 22 -3 72 -11 110 -17 39 -6 95 -14 125 -19 150 -23 203 -31 290 -46 299
-51 544 -15 943 140 66 25 135 53 155 62 21 9 46 20 57 24 11 4 36 15 55 23
19 9 60 25 90 36 30 12 64 25 75 30 77 34 132 51 160 51 43 0 77 -40 100 -117
9 -32 21 -69 25 -83 43 -139 52 -213 46 -385 -6 -179 -14 -255 -27 -269 -5 -6
-9 -27 -9 -47 0 -21 -4 -41 -10 -44 -5 -3 -10 -16 -10 -28 0 -22 -64 -212 -93
-278 -42 -97 -59 -133 -106 -229 -59 -121 -90 -179 -146 -270 -22 -36 -44 -72
-50 -81 -72 -117 -257 -350 -378 -475 -43 -45 -110 -128 -149 -185 -39 -57
-89 -131 -112 -164 l-41 -60 -7 -240 c-4 -132 -12 -292 -18 -355 -7 -63 -14
-137 -16 -165 -3 -27 -9 -59 -14 -70 -5 -11 -11 -38 -14 -60 -14 -112 -79
-364 -115 -450 -5 -11 -14 -36 -21 -55 -7 -19 -18 -48 -25 -65 -8 -16 -23 -54
-34 -83 -87 -220 -257 -497 -441 -717 -204 -244 -434 -454 -725 -659 -86 -60
-87 -61 -155 -105 -25 -15 -78 -49 -118 -75 -40 -25 -75 -46 -78 -46 -3 0 -18
-8 -32 -19 -31 -21 -188 -101 -372 -189 -216 -103 -272 -128 -375 -166 -55
-21 -109 -41 -120 -46 -11 -4 -36 -13 -55 -20 -19 -7 -44 -16 -55 -20 -23 -10
-232 -75 -290 -91 -22 -6 -48 -15 -57 -20 -10 -5 -29 -9 -42 -9 -14 0 -27 -4
-30 -9 -3 -5 -20 -11 -38 -14 -18 -3 -64 -12 -103 -21 -61 -15 -115 -26 -312
-67 -24 -5 -64 -14 -90 -20 -27 -5 -64 -12 -83 -15 -19 -3 -44 -9 -55 -14 -75
-31 -1086 -50 -1580 -30 -456 19 -671 34 -1100 79 -144 15 -417 52 -535 72
-139 24 -177 30 -230 39 -98 17 -187 33 -320 59 -25 5 -99 21 -165 36 -66 15
-133 29 -150 32 -16 2 -39 8 -50 13 -11 5 -33 11 -50 15 -16 3 -46 10 -65 15
-19 5 -53 13 -75 19 -37 8 -180 48 -265 72 -19 6 -47 13 -63 16 -15 3 -30 9
-33 14 -3 5 -16 9 -30 9 -13 0 -32 4 -42 9 -9 5 -84 30 -167 55 -82 26 -158
51 -167 56 -10 6 -25 10 -33 10 -8 0 -23 4 -33 9 -30 16 -66 30 -112 45 -57
18 -169 60 -218 82 -46 20 -56 24 -170 68 -51 20 -114 46 -140 57 -100 44
-129 58 -202 91 -41 19 -92 41 -112 49 -21 7 -38 17 -38 21 0 4 -6 8 -13 8 -7
0 -44 16 -82 36 -202 105 -323 168 -350 184 -16 9 -55 31 -85 47 -84 46 -265
154 -360 214 -47 30 -97 61 -112 68 -16 8 -28 18 -28 23 0 4 -5 8 -10 8 -15 0
-250 162 -440 302 -107 79 -304 232 -351 272 -20 17 -71 60 -115 96 -316 259
-844 783 -1119 1110 -244 291 -496 618 -625 810 -24 36 -46 67 -50 70 -8 7
-244 368 -260 400 -7 14 -16 27 -19 30 -12 10 -234 385 -276 467 -12 23 -27
48 -32 55 -15 18 -291 565 -332 658 -18 41 -44 98 -56 125 -29 63 -43 97 -94
215 -23 52 -47 106 -53 120 -6 14 -14 34 -18 45 -7 20 -14 35 -43 105 -8 19
-23 60 -35 90 -42 114 -84 226 -92 245 -15 36 -58 159 -90 255 -17 52 -35 104
-40 115 -4 11 -24 74 -45 140 -20 66 -40 131 -45 145 -4 14 -13 45 -20 70 -6
25 -16 53 -21 62 -5 10 -9 29 -9 42 0 14 -4 27 -9 30 -5 3 -11 18 -14 33 -2
16 -12 55 -21 88 -47 167 -79 294 -83 328 -3 20 -9 40 -14 43 -5 3 -9 23 -9
44 0 21 -4 41 -9 44 -5 3 -11 23 -14 43 -3 21 -13 82 -23 135 l-18 97 21 23
c46 50 63 96 63 168 0 38 -5 82 -12 97 -18 43 -72 107 -104 123 -16 8 -47 27
-69 41 -22 14 -69 42 -105 61 -116 63 -434 266 -510 326 -14 11 -74 57 -135
103 -60 45 -137 108 -170 139 -33 31 -82 77 -110 101 -27 24 -75 66 -105 94
-31 27 -105 93 -165 145 -60 52 -138 122 -173 155 -68 63 -352 369 -414 445
-20 25 -47 57 -60 72 -13 14 -50 61 -83 103 -33 43 -65 83 -70 89 -6 6 -41 54
-79 106 -38 52 -81 111 -95 130 -66 89 -291 443 -291 456 0 3 -12 23 -26 46
-32 51 -209 400 -248 488 -15 36 -36 83 -46 105 -14 33 -45 110 -101 253 -5
12 -13 32 -19 45 -12 26 -109 319 -121 362 -10 36 -26 93 -38 138 -37 124 -88
343 -112 475 -33 182 -38 214 -63 393 -42 304 -50 443 -49 924 0 516 8 648 63
1025 15 102 31 196 45 265 3 17 11 55 16 85 15 75 58 263 76 330 8 30 17 66
20 80 2 14 8 34 13 45 4 11 13 38 19 60 27 97 104 331 112 340 5 5 9 17 9 27
0 10 4 26 9 36 11 22 21 47 65 160 36 93 54 133 107 250 16 35 29 65 29 68 0
7 160 326 169 339 5 6 22 35 38 65 85 155 348 558 448 685 307 392 541 649
825 905 63 57 165 150 225 206 156 144 187 169 381 315 242 181 422 299 689
450 186 105 427 223 600 294 50 20 104 43 120 50 17 7 46 18 65 25 19 7 53 20
75 30 22 9 108 38 190 65 83 26 159 51 170 55 20 7 49 16 135 40 25 7 65 18
90 25 25 7 68 18 95 25 28 6 66 15 85 20 58 15 93 22 140 27 25 3 49 9 55 14
5 5 30 9 55 9 25 0 50 4 56 9 5 5 29 11 54 14 25 2 113 14 195 25 83 11 200
25 260 31 61 6 148 15 195 20 121 12 947 13 1060 1z m7890 -1489 c145 -15 237
-28 249 -36 7 -3 40 -11 74 -17 162 -26 256 -46 412 -88 44 -12 94 -25 110
-29 17 -4 39 -13 50 -18 11 -6 40 -16 65 -23 25 -7 53 -16 62 -21 10 -5 24 -9
32 -9 7 0 35 -9 62 -19 164 -63 244 -95 281 -112 24 -10 45 -19 48 -19 12 0
411 -194 480 -233 11 -7 52 -30 90 -51 39 -22 84 -47 100 -56 232 -131 597
-379 850 -579 295 -232 631 -549 840 -791 183 -212 288 -353 478 -635 93 -137
195 -286 228 -330 33 -44 77 -105 99 -135 45 -62 118 -158 185 -240 206 -256
249 -308 268 -331 12 -14 47 -54 77 -90 87 -102 226 -256 319 -354 187 -197
557 -560 646 -634 22 -19 60 -52 85 -75 25 -23 57 -50 71 -61 14 -11 82 -65
150 -120 199 -160 354 -272 569 -411 171 -110 524 -299 682 -364 32 -12 60
-30 62 -39 18 -68 60 -320 71 -426 13 -129 28 -368 29 -440 0 -141 -25 -419
-52 -580 -10 -59 -14 -77 -33 -165 -20 -87 -67 -245 -88 -295 -5 -11 -23 -57
-41 -102 -31 -80 -87 -195 -157 -322 -44 -80 -209 -326 -260 -387 -165 -199
-354 -388 -568 -570 -67 -57 -351 -263 -375 -272 -8 -3 -35 -20 -60 -37 -52
-35 -218 -135 -225 -135 -3 0 -24 -12 -46 -26 -74 -46 -410 -211 -499 -243
-19 -8 -48 -19 -65 -26 -85 -35 -189 -69 -385 -127 -19 -6 -44 -14 -55 -18
-36 -13 -88 -30 -198 -67 l-108 -37 -207 -206 c-247 -246 -326 -320 -452 -426
-219 -183 -420 -319 -605 -409 -186 -91 -211 -98 -345 -100 -93 -1 -160 -11
-308 -45 -23 -6 -55 -10 -71 -10 -17 0 -42 -5 -58 -11 -15 -6 -57 -15 -93 -21
-73 -11 -135 -21 -230 -37 -192 -34 -400 -68 -485 -80 -27 -3 -56 -10 -63 -15
-8 -4 -44 -13 -80 -18 -37 -5 -89 -13 -117 -18 -27 -5 -79 -13 -115 -19 -36
-6 -92 -15 -125 -21 -90 -15 -248 -41 -359 -59 -37 -6 -73 -14 -80 -18 -6 -4
-36 -11 -66 -15 -30 -4 -83 -12 -117 -18 -63 -10 -129 -21 -245 -40 -35 -6
-88 -15 -118 -20 -30 -6 -83 -14 -117 -19 -34 -5 -66 -12 -71 -15 -5 -3 -41
-11 -78 -17 -128 -20 -169 -27 -231 -38 -35 -6 -91 -16 -125 -21 -35 -6 -90
-15 -123 -21 -66 -11 -164 -27 -240 -38 -27 -4 -63 -13 -78 -19 -36 -15 -237
-15 -274 -1 -15 6 -59 15 -98 20 -38 5 -86 11 -105 14 -126 20 -404 91 -453
116 -9 5 -52 23 -95 40 -131 52 -381 186 -444 238 -7 6 -40 31 -74 56 -84 62
-250 209 -309 275 -74 83 -147 168 -164 193 -8 12 -18 24 -22 27 -9 7 -159
227 -159 234 0 3 -15 29 -33 58 -32 50 -105 196 -160 319 -25 55 -93 254 -123
359 -9 30 -20 69 -25 86 -13 45 -13 44 42 104 61 66 235 263 300 340 26 30 71
84 101 120 156 187 398 529 533 755 26 44 53 87 60 95 21 25 121 214 219 415
89 182 106 219 142 303 9 20 22 51 29 67 32 74 88 212 96 235 4 14 29 84 54
155 25 72 50 144 55 160 9 32 54 189 69 240 39 135 81 308 101 415 6 30 15 78
20 105 28 143 46 261 59 386 4 42 11 81 15 88 8 12 17 100 38 361 16 196 16
937 0 1160 -13 191 -29 348 -38 370 -3 8 -10 49 -15 90 -12 100 -26 193 -38
260 -20 116 -31 177 -41 223 -6 26 -14 66 -18 90 -5 23 -11 48 -15 54 -4 7
-12 33 -18 60 -15 70 -49 205 -80 311 -5 17 -14 49 -20 70 -22 80 -29 101 -74
227 -25 72 -53 150 -61 175 -15 45 -31 82 -65 154 -11 22 -19 43 -19 48 0 4
-13 37 -30 73 -16 36 -30 67 -30 69 0 9 -192 396 -240 486 -29 52 -69 123 -91
157 -21 34 -39 65 -39 68 0 4 -13 26 -30 50 -16 24 -30 46 -30 50 0 7 -169
259 -253 377 -65 91 -152 206 -225 297 -41 51 -42 54 -26 72 9 10 20 19 24 19
4 0 87 38 184 85 97 47 179 85 181 85 2 0 33 13 67 28 35 16 79 34 98 42 19 7
58 23 85 36 63 28 351 124 374 124 9 0 22 5 28 11 6 6 26 14 44 19 19 5 95 24
169 43 134 33 201 48 303 66 28 5 77 15 107 22 74 16 152 26 294 39 66 6 122
13 125 16 9 9 704 -4 811 -15z m-18523 -11690 c28 -5 61 -14 72 -20 11 -6 32
-11 47 -11 15 0 41 -4 58 -10 17 -5 105 -23 196 -40 91 -17 181 -35 200 -40
19 -5 49 -11 65 -14 17 -3 59 -12 95 -21 70 -17 146 -33 195 -41 17 -3 48 -9
70 -14 22 -4 67 -14 100 -20 33 -6 78 -15 100 -20 22 -5 67 -13 100 -20 33 -6
83 -17 110 -25 48 -13 72 -18 210 -45 33 -6 78 -15 100 -20 22 -5 67 -14 100
-20 33 -6 78 -15 100 -20 22 -5 67 -13 100 -20 33 -6 83 -17 110 -25 28 -8 66
-17 85 -20 36 -6 101 -19 155 -30 17 -4 73 -15 125 -25 52 -10 109 -21 125
-25 17 -3 50 -10 75 -15 25 -5 74 -16 110 -24 36 -9 90 -21 120 -27 30 -6 73
-15 95 -19 22 -4 67 -13 100 -20 33 -7 80 -16 105 -21 107 -22 159 -31 215
-38 33 -4 73 -13 88 -19 36 -15 315 -16 354 -1 26 10 84 23 162 36 30 5 33 3
27 -13 -14 -36 -64 -193 -112 -354 -9 -30 -21 -59 -25 -64 -5 -6 -9 -19 -9
-30 0 -11 -4 -33 -9 -50 -12 -37 -26 -94 -41 -161 -6 -27 -15 -66 -20 -85 -5
-19 -14 -62 -20 -95 -6 -33 -16 -75 -21 -92 -6 -18 -15 -56 -20 -85 -25 -134
-29 -157 -38 -213 -6 -33 -15 -89 -21 -125 -22 -140 -48 -347 -59 -486 -4 -56
-12 -107 -17 -115 -4 -8 -12 -68 -16 -134 -4 -66 -13 -214 -20 -330 -17 -278
-17 -1348 0 -1675 7 -135 16 -315 21 -401 4 -85 11 -161 16 -168 4 -7 12 -72
17 -145 17 -248 36 -462 58 -641 6 -49 16 -133 21 -185 6 -52 15 -126 19 -165
5 -38 13 -112 19 -163 6 -51 13 -98 17 -104 4 -6 11 -43 15 -82 5 -39 13 -102
18 -141 5 -38 14 -104 20 -145 6 -41 15 -106 21 -145 17 -113 31 -216 39 -275
3 -30 10 -60 14 -67 4 -7 12 -43 18 -80 5 -37 14 -93 19 -123 5 -30 14 -84 20
-120 10 -63 18 -108 40 -242 6 -35 15 -88 20 -118 5 -30 13 -81 19 -112 5 -31
12 -62 16 -68 4 -6 11 -39 17 -73 20 -126 24 -149 67 -357 5 -25 14 -72 21
-105 6 -33 16 -76 21 -96 5 -20 9 -48 9 -63 0 -15 5 -37 12 -49 6 -12 15 -40
19 -62 6 -36 12 -65 39 -200 4 -22 18 -87 30 -145 12 -58 26 -123 30 -145 5
-22 16 -69 25 -105 15 -62 23 -96 44 -192 6 -24 14 -61 19 -83 6 -22 15 -65
22 -95 7 -30 16 -71 20 -90 4 -19 11 -51 15 -70 4 -19 13 -53 20 -75 7 -22 17
-62 23 -90 11 -53 67 -287 82 -345 5 -19 14 -60 21 -90 6 -30 16 -66 22 -80 5
-14 14 -42 18 -62 15 -64 26 -108 59 -233 17 -66 40 -152 50 -192 10 -39 21
-77 26 -84 4 -7 11 -29 15 -48 4 -20 17 -71 28 -113 12 -43 30 -113 42 -155
31 -117 35 -132 58 -203 12 -36 26 -83 32 -105 6 -22 15 -51 19 -65 4 -14 13
-45 20 -70 7 -25 16 -56 20 -70 4 -14 13 -45 20 -70 7 -25 18 -61 25 -80 8
-19 24 -69 36 -110 12 -41 29 -100 39 -130 10 -30 27 -89 39 -130 12 -41 28
-90 36 -108 8 -18 15 -39 15 -47 0 -9 4 -23 9 -33 5 -9 19 -51 31 -92 29 -100
59 -192 69 -210 5 -9 12 -30 15 -48 4 -17 12 -34 17 -37 5 -4 9 -16 9 -29 0
-12 4 -26 8 -31 5 -6 14 -30 22 -55 24 -82 71 -225 81 -242 5 -10 21 -53 34
-95 14 -43 30 -87 35 -98 5 -11 16 -40 24 -65 28 -85 58 -165 65 -175 4 -5 13
-28 20 -50 7 -22 16 -49 21 -60 4 -11 23 -58 40 -105 34 -90 51 -131 81 -194
11 -22 19 -43 19 -48 0 -5 10 -30 21 -56 12 -26 27 -60 34 -77 8 -16 38 -82
68 -145 29 -63 62 -133 72 -155 11 -22 39 -73 62 -113 24 -40 43 -75 43 -78 0
-3 14 -26 31 -50 17 -25 29 -51 26 -58 -4 -10 -191 -107 -307 -158 -19 -9 -56
-25 -81 -36 -25 -12 -68 -30 -96 -41 -28 -11 -70 -29 -94 -39 -44 -20 -168
-67 -269 -104 -30 -11 -68 -26 -85 -33 -16 -8 -88 -33 -160 -56 -71 -23 -168
-55 -215 -71 -47 -16 -100 -34 -117 -39 -18 -5 -49 -13 -68 -19 -19 -5 -50
-14 -67 -19 -45 -13 -186 -51 -228 -61 -19 -5 -60 -16 -90 -25 -30 -10 -71
-21 -90 -25 -225 -52 -390 -81 -560 -99 -47 -5 -103 -14 -125 -20 -64 -17
-344 -14 -395 4 -23 8 -54 15 -68 15 -28 0 -65 11 -152 44 -57 21 -145 77
-240 153 -30 24 -93 74 -140 111 -75 59 -293 256 -391 352 -59 57 -271 291
-319 350 -25 30 -47 57 -50 60 -3 3 -34 41 -68 85 -35 44 -69 88 -77 97 -7 9
-22 29 -32 45 -9 15 -20 30 -23 33 -9 8 -158 220 -175 249 -5 9 -35 55 -65
101 -103 158 -130 200 -130 206 0 3 -13 24 -28 47 -26 39 -67 110 -149 262
-44 82 -215 427 -248 500 -15 33 -38 85 -52 115 -40 89 -50 111 -83 195 -18
44 -40 98 -49 120 -19 43 -70 175 -103 265 -11 30 -30 82 -43 115 -13 33 -47
132 -76 220 -28 88 -55 169 -59 180 -10 25 -58 170 -69 210 -5 17 -14 50 -21
75 -7 25 -16 56 -20 70 -4 14 -12 43 -18 65 -6 22 -23 81 -38 130 -40 136 -42
143 -64 240 -12 50 -25 106 -30 125 -5 19 -14 60 -21 90 -6 30 -16 66 -21 79
-5 14 -14 45 -19 70 -6 25 -14 65 -20 89 -15 70 -27 124 -39 187 -7 33 -16 80
-21 105 -18 89 -30 156 -37 205 -4 28 -11 56 -16 63 -4 7 -12 37 -16 65 -5 29
-13 80 -19 115 -47 268 -77 463 -100 635 -5 42 -13 82 -17 88 -4 6 -11 43 -16
83 -5 39 -13 103 -18 141 -39 302 -65 532 -79 697 -5 59 -12 112 -16 117 -5
10 -10 56 -35 356 -68 798 -114 2003 -114 2960 0 655 24 1606 53 2100 6 99 16
259 21 355 17 283 29 486 40 620 5 69 13 182 18 252 5 69 13 132 17 138 4 6
11 67 16 133 8 116 14 174 39 397 11 102 25 231 41 375 5 50 13 131 17 180 4
50 11 96 16 103 4 7 12 58 17 115 6 56 14 138 19 182 23 208 29 268 40 375 6
63 16 120 21 126 8 10 36 8 156 -15z m12808 -9698 c9 -21 31 -83 50 -138 19
-55 43 -127 55 -160 30 -87 35 -105 70 -255 17 -74 36 -149 41 -166 5 -17 9
-43 9 -58 0 -15 5 -37 11 -48 6 -11 15 -46 20 -77 6 -31 14 -81 19 -111 51
-304 64 -450 80 -882 16 -420 -1 -971 -39 -1338 -16 -146 -31 -283 -41 -360
-5 -36 -13 -101 -18 -146 -5 -44 -13 -87 -18 -95 -5 -8 -12 -41 -16 -74 -22
-181 -28 -205 -47 -205 -4 0 -24 30 -46 68 -21 37 -41 69 -45 72 -16 15 -160
324 -160 344 0 6 -4 16 -8 21 -7 9 -18 41 -62 185 -4 14 -13 45 -19 70 -7 25
-17 59 -23 75 -17 50 -46 223 -58 355 -18 188 -8 526 19 675 5 28 13 75 18
105 5 31 13 62 18 70 5 8 12 34 17 57 4 24 12 62 17 86 41 190 78 402 100 566
6 41 13 81 17 90 7 18 17 101 36 326 22 266 14 706 -18 943 -7 52 1 54 21 5z"/>
<path d="M18140 24060 c-118 -25 -168 -43 -295 -106 -115 -57 -169 -87 -190
-107 -7 -7 -38 -32 -69 -56 -53 -41 -173 -175 -225 -249 -29 -41 -39 -137 -21
-201 17 -64 95 -144 163 -165 105 -33 207 1 289 98 128 150 240 226 393 267
66 18 293 18 360 0 118 -32 296 -105 370 -153 11 -7 58 -38 105 -69 47 -30
100 -63 119 -72 99 -49 252 14 310 126 19 37 23 61 23 119 -1 86 -14 117 -74
174 -51 49 -108 89 -243 170 -92 55 -140 80 -235 121 -19 8 -53 23 -75 33 -22
10 -51 21 -65 25 -14 3 -41 11 -60 16 -199 53 -416 65 -580 29z"/>
<path d="M12930 23550 c-8 -5 -29 -10 -47 -10 -18 0 -42 -4 -55 -9 -13 -5 -48
-16 -78 -26 -147 -48 -320 -156 -431 -272 -74 -77 -98 -109 -158 -207 -77
-127 -86 -197 -40 -293 44 -90 142 -148 239 -141 109 9 175 58 239 177 30 56
102 132 173 185 71 51 210 86 344 86 127 0 305 -35 412 -80 12 -6 32 -14 45
-19 21 -9 84 -37 234 -107 72 -34 136 -43 171 -25 9 5 32 15 50 22 95 35 167
173 142 271 -18 70 -38 105 -82 142 -43 37 -213 124 -345 177 -13 5 -33 13
-45 19 -68 29 -282 89 -363 102 -89 14 -387 20 -405 8z"/>
<path d="M18266 22189 c-174 -29 -336 -147 -422 -309 -51 -94 -59 -134 -59
-275 0 -111 4 -139 24 -194 64 -176 204 -310 391 -375 84 -29 312 -20 382 15
10 5 22 9 28 9 20 0 147 91 191 137 76 80 118 151 143 243 53 195 16 378 -107
537 -130 168 -350 249 -571 212z"/>
<path d="M12970 21886 c-66 -15 -156 -54 -207 -92 -57 -42 -133 -117 -133
-131 0 -7 -4 -13 -9 -13 -12 0 -65 -104 -87 -170 -25 -76 -25 -272 0 -350 40
-120 119 -226 231 -309 105 -78 192 -104 340 -104 179 0 287 44 419 171 71 69
146 187 146 232 0 9 5 21 12 28 17 17 17 297 0 314 -7 7 -12 20 -12 29 0 10
-17 50 -37 91 -73 143 -229 265 -388 303 -72 17 -199 17 -275 1z"/>
<path d="M15870 18751 c-103 -10 -241 -36 -320 -61 -14 -4 -45 -13 -70 -21
-25 -7 -49 -16 -54 -21 -6 -4 -19 -8 -31 -8 -12 0 -25 -4 -31 -8 -5 -5 -40
-21 -79 -37 -173 -70 -428 -226 -591 -362 -45 -38 -95 -79 -111 -93 -54 -45
-83 -112 -83 -189 0 -84 24 -134 92 -196 37 -34 59 -45 108 -54 106 -21 153 1
349 163 82 67 143 110 206 146 94 54 183 100 225 115 25 10 64 26 87 36 24 10
52 19 62 19 11 0 22 4 25 9 3 5 20 11 38 14 18 4 58 11 88 17 140 27 449 20
485 -11 5 -5 21 -9 36 -9 15 0 31 -4 34 -10 3 -5 14 -10 23 -10 31 0 201 -94
285 -157 45 -34 123 -101 173 -151 50 -49 106 -97 124 -106 49 -24 159 -22
207 5 65 36 97 65 117 105 10 22 22 47 27 56 12 23 12 113 0 136 -5 9 -15 30
-22 47 -39 82 -297 312 -472 419 -59 36 -190 106 -199 106 -4 0 -16 4 -26 9
-156 79 -461 124 -702 102z"/>
</g>
</svg>
