<?xml version="1.0" encoding="utf-8"?>
<svg viewBox="0 0 96 96" xmlns="http://www.w3.org/2000/svg">
  <g transform="translate(-592 -309)">
    <path d="M673 361 666.1 349 666.1 348.5C666.7 331.9 653.7 318 637.1 317.4 620.5 316.8 606.6 329.7 606 346.3 606 347 606 347.8 606 348.5 606 358 610.3 366.9 617.8 372.7L617.8 398 649.4 398 649.4 386 654.3 386C660.8 386 666.1 380.7 666.1 374.2 666.1 374.1 666.1 374.1 666.1 374L666.1 368 670.5 368C673.1 367.7 675.4 364.7 673 361ZM610.5 338.5 616 338.5 616 334.5C614.9 333.7 614.7 332.1 615.5 331 616.3 329.9 617.9 329.7 619 330.5 620.1 331.3 620.3 332.9 619.5 334 619.4 334.2 619.2 334.4 619 334.5L619 338.5 623 338.5 623 345.5C624.1 346.3 624.3 347.9 623.5 349 622.7 350.1 621.1 350.3 620 349.5 618.9 348.7 618.7 347.1 619.5 346 619.6 345.8 619.8 345.6 620 345.5L620 341.5 609.6 341.5C609.9 340.5 610.1 339.5 610.5 338.5ZM638.3 355.4C636.9 355.4 635.8 354.3 635.8 352.9 635.8 352.8 635.8 352.6 635.8 352.5L633.2 349.9 629 354.1 629 361.5C630.1 362.3 630.3 363.9 629.5 365 628.7 366.1 627.1 366.3 626 365.5 624.9 364.7 624.7 363.1 625.5 362 625.6 361.8 625.8 361.6 626 361.5L626 360.5 619.3 360.5 614.6 355C613.2 355.1 612 354.1 611.9 352.7 611.8 351.3 612.8 350.1 614.2 350 615.6 349.9 616.8 350.9 616.9 352.3 616.9 352.5 616.9 352.8 616.9 353L620.7 357.5 626 357.5 626 352.9 631.1 347.8 628 344.6 628 326.5C626.9 325.7 626.7 324.1 627.5 323 628.3 321.9 629.9 321.7 631 322.5 632.1 323.3 632.3 324.9 631.5 326 631.4 326.2 631.2 326.4 631 326.5L631 329.5 639 329.5 639 336.5C640.1 337.3 640.3 338.9 639.5 340 638.7 341.1 637.1 341.3 636 340.5 634.9 339.7 634.7 338.1 635.5 337 635.6 336.8 635.8 336.6 636 336.5L636 332.5 631 332.5 631 343.4 638 350.4C638.1 350.4 638.2 350.4 638.3 350.4 639.7 350.4 640.8 351.5 640.8 352.9 640.8 354.3 639.7 355.4 638.3 355.4ZM650.5 335.2C649.1 335.2 648 334.1 648 332.7 648 332.6 648 332.6 648 332.5L644 328.9 644 321.6C645 321.9 646 322.3 647 322.7L647 327.6 650 330.3C650.2 330.3 650.3 330.3 650.5 330.3 651.9 330.3 653 331.4 653 332.8 653 334.2 651.9 335.2 650.5 335.2Z" fill="#123456" />
  </g>
</svg>