<?xml version="1.0" encoding="utf-8"?>
<svg viewBox="0 0 96 96" xmlns="http://www.w3.org/2000/svg">
  <g transform="translate(-420 -312)">
    <path d="M483.2 366.6C487.4 368.1 491.4 369.8 494.7 372.5 496.1 373.6 496.9 375.2 496.9 377L498.7 392.5C498.8 393.2 498.5 393.9 497.9 394.3 496.2 395.4 494.4 396.3 492.5 396.9L492.5 400.1 495.2 400.1C496.9 399.4 498.6 398.6 500.1 397.6 501.9 396.4 502.9 394.2 502.6 392L501 376.9C500.9 374 499.6 371.3 497.3 369.5 493.6 366.4 489.2 364.5 484.6 362.9L479.7 360.9C479.3 360.7 479.1 360.4 479.1 360L479.1 357.6C482.9 354.6 485.1 350 485.1 345.1L485.1 341.5C485.7 341.9 486.4 342 487.1 342.1L485.4 337.1C485.2 336.4 485 335.7 484.9 335 484.1 329.3 480.7 325.3 476 322.8 475.6 322.6 475.1 322.6 474.7 322.9L473.8 323.6 472.8 322.2C472.5 321.8 472.1 321.4 471.6 321.3 470.7 321.1 469.8 321 468.9 321 461 321 454.4 327.2 453 335.3L453 336 453 337.7C453 339.9 452.6 342 451.7 344L450 348C450 348 451.2 347.7 453.2 347.1 453.7 351.2 455.8 354.9 459 357.4L459 359.9C459 360.3 458.8 360.7 458.4 360.8L453.5 362.8C448.9 364.4 444.5 366.3 440.8 369.4 438.5 371.2 437.1 373.9 437 376.8L435.3 392C435 394.2 436 396.4 437.8 397.6 439.3 398.6 441 399.4 442.7 400.1L445.5 400.1 445.5 397C443.6 396.3 441.8 395.5 440.1 394.4 439.5 394 439.2 393.3 439.3 392.6L441 377.2 441 377C441 375.2 441.9 373.6 443.3 372.5 446.6 369.8 450.6 368.1 454.8 366.6L456.4 366.1C459.3 367.9 463.9 369 469 369 474.1 369 478.7 367.9 481.7 366.1L483.2 366.6ZM457 345.9C463.8 343.6 473.6 339.6 478 334 478.9 335.4 479.9 336.7 481 338L481 345C481 351.6 475.6 357 469 357 462.7 357 457.5 352.2 457 345.9ZM461 363.9C462.2 363 463 361.5 463 359.9L463 359.8C466.8 361.4 471.2 361.4 475 359.8L475 359.9C475 361.4 475.7 362.9 476.9 363.9 474.3 364.7 471.6 365.1 468.9 365 466.3 365 463.6 364.6 461 363.9Z" fill="#000" />
    <path d="M490.6 377.3C490.6 375.9 489.5 374.8 488.1 374.8L488.1 374.8 450 374.8C448.6 374.8 447.5 375.9 447.5 377.3L447.5 402.2 439.9 402.2 439.9 403.5C439.9 404.9 441 406 442.4 406L495.7 406C497.1 406 498.2 404.9 498.2 403.5L498.2 402.2 490.6 402.2 490.6 377.3ZM463.8 393.8 462.4 395.2 456.8 389.6 462.4 384 463.8 385.4 459.6 389.6 463.8 393.8ZM467.6 395.9 465.8 395.1 470.5 383.8 472.3 384.6 467.6 395.9ZM475.6 395.3 474.2 393.9 478.4 389.7 474.2 385.5 475.6 384.1 481.2 389.7 475.6 395.3Z" fill="#000" />
  </g>
</svg>