<?xml version="1.0" encoding="UTF-8"?>
<svg viewBox="433.42 367.83 3263.5 3113.9" xmlns="http://www.w3.org/2000/svg">
    <defs></defs>
    <path d="m449.92 1119.9c0.595-21.765-1.54-25.205 0.577-56.643 1.229-4.064 1.285-7.637 1.728-10.187 2.387-13.738 4.117-27.604 6.901-41.258 7.192-35.277 20.715-68.197 39.461-98.808 5.649-9.224 13.153-17.647 21.106-25.041 9.476-8.809 21.113-10.568 33.543-5.507 3.234 1.317 7.138 2.131 10.539 1.686 12.541-1.641 25.164-3.205 37.461-6.065 41.123-9.567 79.913-25.527 117.29-44.887 58.008-30.048 110.22-68.526 159.86-110.74 43.913-37.346 88.008-74.478 132.06-111.66 38.187-32.226 76.471-64.336 114.64-96.587 28.996-24.503 57.439-49.594 89.686-70.053 36.525-23.173 74.457-42.941 116.52-53.868 15.105-3.925 30.426-7.014 45.648-10.485 16.042 0 32.084 0 49.768 0.239 3.527 0.851 5.37 1.693 7.303 2.044 42.708 7.748 76.311 30.191 102.93 63.829 18.837 23.807 31.521 50.875 41.616 79.293 0.822 2.314 2.033 4.49 2.992 6.575 1.641-0.426 2.378-0.44 2.898-0.784 1.939-1.283 3.821-2.653 5.697-4.026 29.914-21.901 61.383-41.298 94.525-57.892 49.692-24.879 101.92-42.71 156.14-54.616 39.049-8.575 78.597-13.265 118.59-15.242 51.403-2.541 102.49-0.301 153.34 7.158 69.415 10.183 135.69 30.78 198.38 62.276 73.977 37.167 139.18 86.239 195.79 146.68 7.919 8.456 7.883 8.489 17.375 3.28 38.394-21.074 78.698-37.544 120.57-50.296 50.079-15.25 101.29-22.783 153.6-22.086 16.6 0.221 33.205 1.892 49.758 3.429 53.23 4.942 103.86 19.872 152.86 40.701 52.385 22.269 100.99 51.207 146.75 84.903 48.246 35.526 92.433 75.516 129.03 123.16 17.229 22.432 32.258 46.539 48.878 69.457 43.915 60.555 91.868 117.6 147.01 168.41 50.143 46.197 104.78 85.451 168.53 110.9 9.763 3.898 15.908 10.742 17.858 21.097 3.502 18.601 7.043 37.198 10.242 55.852 1.569 9.152 2.408 18.429 3.577 27.65 0 18.042 0 36.084-0.014 55.882-0.608 4.673-1.591 7.571-1.735 10.51-1.095 22.419-5.704 44.24-12.348 65.521-17.772 56.927-49.912 104.96-92.34 146.43-43.151 42.171-93.252 73.968-147.58 99.663-26.629 12.595-54.685 20.998-82.555 30.021-5.552 1.797-9.926 4.678-14.157 8.759-18.701 18.038-37.176 36.392-56.894 53.275-28.221 24.164-58.86 44.797-94.473 56.943-1.474 0.503-2.754 1.576-4.135 2.39 0.69 8.434 1.659 16.36 1.931 24.31 0.908 26.63 1.538 53.27 2.354 79.904 0.119 3.847 0.674 7.68 1.04 11.67 12.849 2.017 24.596 4.237 36.442 5.577 6.866 0.777 13.955 0.746 20.832 0.021 19.114-2.015 36.535-9.702 54.089-16.94 15.697-6.472 31.314-13.296 47.419-18.586 30.586-10.046 59.093 2.836 70.69 31.853 14.294 35.764 18.934 72.709 10.679 110.72-11.318 52.111-35.768 98.004-67.574 140.2-12.209 16.196-25.518 31.569-38.485 47.186-3.422 4.12-4.324 8.599-4.599 13.802-1.088 20.602-1.588 41.31-4.16 61.745-7.128 56.641-28.004 108.04-61.693 154.15-32.528 44.518-74.048 79.061-120.26 108.49-22.577 14.377-46.766 25.512-70.726 37.185-6.844 3.334-14.031 6.739-19.61 11.733-11.13 9.962-22.074 20.364-31.635 31.804-23.681 28.334-36.494 61.136-35.202 98.373 0.923 26.595 3.036 53.166 5.236 79.696 2.725 32.834 6.85 65.568 8.875 98.438 1.099 17.848-1.045 35.883-1.476 53.839-0.579 24.138-4.82 47.732-11.474 70.79-24.312 84.242-67.628 157.64-128.41 220.6-40.768 42.228-89.233 72.661-145.33 90.453-58.847 18.665-119.04 21.905-179.8 13.384-51.689-7.247-100.16-24.339-144.46-52.372-49.093-31.07-90.72-69.743-121.34-119.6-27.915-45.459-43.6-94.851-46.895-148-1.929-31.108 1.909-61.889 9.122-92.148 11.248-47.178 17.385-94.782 16.734-143.44-0.538-40.233-7.698-78.855-22.916-115.89-29.744-72.38-83.694-118.75-156.92-143.78-11.384-3.891-23.221-5.687-35.402-5.278-11.891 0.4-20.249 5.363-24.953 16.492-4.336 10.254-6.726 20.866-6.924 31.983-0.29 16.339 1.356 32.433 3.954 48.621 6.093 37.961 16.63 74.693 28.638 111.06 10.857 32.884 22.953 65.378 33.102 98.474 20.824 67.911 36.98 136.74 40.221 208.19 1.965 43.316-1.254 85.905-13.766 127.38-10.604 35.148-27.581 67.105-53.022 94.112-27.155 28.826-58.291 51.4-96.329 64.087-44.572 14.867-90.643 21.375-137.12 24.916-34.86 2.657-69.898 3.001-104.86 4.31-4.346 0.163-8.261 0.473-12.198 3.223-8.436 5.89-17.13 11.551-26.237 16.314-67.423 35.26-139.08 59.071-212.71 77.168-21.903 5.384-44.407 8.325-66.635 12.386-20.042 0-40.084 0-61.804-0.118-23.187-4.639-41.907-13.985-59.637-27.53-46.422-35.466-87.48-75.953-122.51-122.62-39.431-52.523-70.762-109.7-96.588-169.92-36.617-85.385-62.409-174.16-80.69-265.11-7.991-39.754-14.4-79.846-20.645-119.92-4.557-29.243-8.14-58.66-11.288-88.092-2.974-27.81-4.947-55.731-7.117-83.621-2.116-27.198-4.378-54.396-5.75-81.636-1.593-31.601-2.814-63.241-3.251-94.877-0.718-51.974-1.239-103.96-0.77-155.94 0.357-39.631 2.135-79.257 3.746-118.86 0.987-24.263 2.79-48.494 4.341-72.733 1.808-28.24 3.155-56.526 5.771-84.693 3.107-33.448 7.324-66.794 11.115-100.18 3.64-32.063 7.398-64.112 10.997-96.179 0.919-8.186 1.434-16.418 2.108-24.315-1.57-0.996-2.346-1.63-3.228-2.027-31.417-14.165-51.824-38.931-66.138-69.312-19.733-41.88-39.194-83.888-58.616-125.91-2.219-4.801-5.171-8.182-10.02-10.469-9.034-4.259-17.898-8.899-26.69-13.644-52.334-28.241-102.24-60.165-147.15-99.332-51.798-45.171-94.59-97.388-123.45-160.32-19.473-42.461-31.583-86.798-35.294-133.42-0.303-3.807 0.191 1.838-0.991-1.899m1812.1 663.61c0.886-5.575 1.572-11.19 2.692-16.717 6.112-30.152 14.785-59.38 29.33-86.768 5.254-9.894 12.163-16.881 21.877-22.296 33.56-18.705 64.62-41.072 94.187-65.593 34.747-28.819 66.08-61.008 95.035-95.544 23.165-27.628 44.423-56.748 62.286-88.043 54.48-95.449 81.376-198.63 83.743-308.25 1.168-54.12-3.868-107.77-15.223-160.79-15.307-71.478-42.562-138.14-81.915-199.58-53.56-83.619-122.06-152.85-204.93-207.68-74.542-49.322-156.56-79.529-244.55-93.382-55.853-8.793-112.15-9.1-168.5-4.987-47.011 3.433-92.959 12.167-137.98 26.187-69.137 21.527-132.61 54.024-189.88 98.227-40.436 31.21-77.52 66.167-111.16 104.68-32.369 37.062-60.185 77.291-82.758 121.01-37.402 72.442-60.141 149.26-67.401 230.54-5.834 65.327-4.482 130.44 7.346 195.07 9.946 54.342 26.863 106.52 50.574 156.47 22.862 48.154 51.906 92.333 86.341 132.91 14.214 16.75 29.192 32.912 44.634 48.539 10.981 11.113 23.597 20.59 34.998 31.314 27.534 25.9 57.234 48.888 89.741 68.207 9.735 5.785 19.807 11.038 29.293 17.2 13.231 8.595 16.195 23.433 7.282 36.463-2.947 4.307-3.665 8.078-2.424 12.975 6.868 27.09 12.647 54.488 20.414 81.313 28.112 97.09 66.926 189.63 118.86 276.56 55.451 92.804 122.51 175.96 203.84 247.41 51.531 45.275 107.46 84.211 167.63 117.12 45.728 25.013 93.484 45.364 142.58 62.677 63.304 22.321 128.27 37.994 194.61 47.884 25.013 3.73 50.198 6.421 75.369 8.936 23.831 2.381 47.724 5.074 71.631 5.563 44.296 0.907 88.623 0.462 132.94 0.23 11.97-0.063 24.128-0.294 35.861-2.367 21.292-3.762 42.48-8.374 63.443-13.69 44.06-11.174 86.267-27.312 126.77-48.1 51.891-26.63 98.248-60.137 135.18-105.76 35.07-43.33 55.53-93.036 62.645-148.05 2.639-20.405 2.454-41.169 3.804-61.752 0.321-4.898 0.311-10.561 2.74-14.44 7.401-11.818 15.521-23.249 24.125-34.232 7.173-9.157 15.995-17.029 23.1-26.232 31.348-40.6 55.264-84.796 63.369-136.22 3.568-22.634-0.375-44.474-8.552-65.621-2.4-6.206-6.295-7.975-12.805-6.243-4.49 1.194-8.835 2.994-13.166 4.719-17.642 7.029-35.144 14.422-52.903 21.137-22.963 8.684-46.736 14.609-71.369 11.382-27.372-3.585-54.519-8.899-81.751-13.544-23.31-3.975-46.513-8.565-70.327-8.707-13.89-0.083-22.97 6.841-27.625 18.974-2.799 7.293-4.034 15.493-4.395 23.358-0.976 21.298-1.312 42.634-1.525 63.958-0.272 27.341-2.002 54.53-6.878 81.471-5.965 32.958-14.654 65.005-31.699 94.222-24.172 41.435-57.581 71.3-105.05 83.386-30.039 7.649-60.519 9.092-91.16 5.181-33.436-4.267-66.164-11.85-98.183-22.515-66.979-22.308-130.49-52.195-191.38-87.706-54.111-31.557-104.05-68.55-146.06-115.44-30.742-34.307-55.554-72.304-71.379-115.87-11.121-30.616-17.195-62.221-18.845-94.646-1.068-20.982-0.09-41.954 3.504-64.516m-410.66 406.25c-2.445-3.578-4.793-7.225-7.349-10.721-30.347-41.507-56.937-85.405-81.006-130.74-35.39-66.653-64.594-136.01-87.007-208.14-14.14-45.509-27.747-91.166-34.45-138.52-0.733-5.181-3.359-8.412-7.436-11.131-13.584-9.058-27.072-18.262-40.656-27.319-5.179-3.453-7.099-3.151-10.963 1.628-7.95 9.833-15.728 19.805-23.699 29.62-25.718 31.669-54.497 60.189-86.89 85.082-4.589 3.527-9.111 8.317-11.346 13.519-8.279 19.263-16.667 38.598-23.056 58.533-18.36 57.283-30.452 115.92-34.385 176.06-2.063 31.545-4.491 63.092-5.375 94.677-0.688 24.602 0.44 49.275 1.335 73.896 0.966 26.604 2.021 53.229 4.081 79.764 2.909 37.467 5.949 74.958 10.412 112.26 8.507 71.088 19.943 141.74 33.652 212.03 13.712 70.305 28.347 140.41 45.647 209.91 23.584 94.745 49.477 188.84 81.415 281.18 12.416 35.896 24.306 71.976 36.99 107.78 8.789 24.806 18.702 49.212 27.73 73.936 2.719 7.444 7.106 10.447 14.977 9.98 15.619-0.928 31.27-1.801 46.909-1.815 35.656-0.033 71.274-0.558 106.55-6.334 24.289-3.976 48.856-7.11 72.622-13.245 56.126-14.487 96.504-49.073 122.63-100.7 15.7-31.027 20.977-64.442 22.823-98.551 1.732-32.006 0.181-64.051-4.622-95.679-10.084-66.399-27.764-130.95-50.331-194.17-23.344-65.39-44.309-131.32-49.742-201.17-1.729-22.236-0.084-44.02 6.841-65.132 7.821-23.841 23.932-40.513 47.268-49.719 16.018-6.32 33.014-5.783 49.336-2.716 38.561 7.247 74.76 22.363 110.02 38.775 39.977 18.61 73.184 46.918 102.44 80.038 33.002 37.366 58.916 79.014 77.205 125.23 26.758 67.62 39.012 138.32 41.006 210.73 0.852 30.919-0.318 61.946-1.831 92.862-1.235 25.216-3.489 50.455-6.84 75.477-4.375 32.658-10.045 65.153-15.712 97.621-1.193 6.834 0.121 11.579 5.243 15.848 6.905 5.756 13.398 12.023 20.476 17.547 52.444 40.929 112.01 64.01 178.26 68.544 31.534 2.158 63.235 1.539 94.603-4.178 61.803-11.264 115.08-39.054 160.16-82.563 30.443-29.381 54.471-63.762 75.687-100.13 27.638-47.373 47.757-97.558 53.219-152.62 3.793-38.235 2.257-76.527-1.521-114.71-1.473-14.89-3.67-29.708-5.178-44.595-1.845-18.209-3.528-36.441-4.901-54.692-3.05-40.546 1.873-79.803 19.578-116.91 1.191-2.497 1.893-5.227 3.124-8.699-3.718 0-6.012-0.331-8.174 0.061-6.878 1.249-13.708 2.765-20.556 4.182-13.694 2.834-27.276 7.173-41.105 8.199-30.531 2.265-61.178 3.166-91.795 4.001-13.62 0.372-27.284-0.663-40.92-1.234-31.601-1.323-63.289-1.686-94.77-4.416-36.774-3.187-73.454-7.852-110.01-13.027-37.62-5.324-74.507-14.388-111.34-23.764-64.191-16.339-125.97-39.145-185.71-67.494-47.034-22.32-91.94-48.42-134.56-78.406-42.864-30.154-83.26-63.296-120.62-100.03-18.045-17.741-35.975-35.722-52.506-54.849-22.416-25.935-43.44-53.074-65.861-80.88m1519.3-1201.4c-39.229-44.151-75.899-90.297-108.27-139.75-27.397-41.849-60.617-78.548-98.026-111.55-39.899-35.201-83.402-65.288-130.04-90.869-62.564-34.316-128.62-57.771-200.12-64.202-46.376-4.172-92.392-2.048-138.02 7.715-49.21 10.527-95.765 28.228-140.46 51.084-2.299 1.175-4.426 2.684-7.076 4.31 1.469 2.472 2.463 4.526 3.797 6.328 8.725 11.781 17.799 23.312 26.253 35.283 50.796 71.921 86.083 150.77 105.09 236.8 7.835 35.462 12.989 71.281 15.495 107.58 3.733 54.056 2.025 107.83-5.553 161.42-6.263 44.284-16.444 87.644-31.578 129.81-17.064 47.542-38.791 92.735-66.073 135.32-25.088 39.155-54.17 75.092-85.804 109.04-3.799 4.077-4.952 7.543-3.523 13.275 9.233 37.052 25.406 70.737 47.983 101.4 45.359 61.604 107.91 91.967 182.58 100.32 16.258 1.818 31.715-2.895 47.384-5.539 47.237-7.972 94.393-16.416 141.59-24.63 35.053-6.101 70.143-11.996 105.17-18.231 33.415-5.948 66.769-12.237 100.16-18.297 2.264-0.411 4.779-0.665 6.954-0.113 6.886 1.748 13.429 0.312 19.462-2.491 11.754-5.463 23.704-10.774 34.684-17.582 37.413-23.197 68.681-53.713 98.898-85.314 5.276-5.517 11-9.327 18.215-11.588 19.38-6.075 38.975-11.651 57.914-18.913 56.217-21.556 107.4-51.682 152.01-92.409 34.661-31.646 62.342-68.392 80.33-112.02 12.44-30.172 18.189-61.691 20.331-94.21 2.166-32.883-1.623-65.111-7.053-97.344-1.203-7.139-4.18-11.445-11.335-14.556-47.109-20.479-89.363-48.818-128.98-81.277-36.44-29.853-69.529-63.178-102.38-98.789m-1981.9 454.05c-30.012-49.598-52.732-102.4-68.835-158.03-16.003-55.291-24.193-111.97-26.226-169.32-1.154-32.547 0.266-65.289 2.401-97.82 2.135-32.532 7.497-64.76 14.753-96.626 9.645-42.352 23.064-83.454 40.884-123.05 38.533-85.611 92.582-160.08 161.63-223.68 6.616-6.093 13.137-12.297 19.887-18.239 3.433-3.022 4.254-6.166 2.979-10.606-8.613-29.992-20.157-58.609-39.152-83.696-14.609-19.293-32.713-33.941-56.045-41.724-27.785-9.269-55.699-7.61-83.72-1.733-59.588 12.498-110.26 43.068-156.96 80.256-42.729 34.024-83.672 70.288-125.43 105.53-55.003 46.41-110.23 92.552-165 139.24-52.152 44.455-107.04 84.91-167.94 116.66-48.664 25.372-99.226 45.581-153.87 54.177-7.763 1.221-15.571 2.044-22.826 6.337-6.133 3.629-13.477 3.133-20.246-0.039-2.298-1.076-4.682-1.967-7.383-3.092-4.8 12.376-9.591 24.019-13.836 35.858-5.164 14.399-10.386 28.813-14.652 43.491-6.727 23.142-8.37 47.149-10.281 71.031-0.687 8.585-0.349 17.313 0.257 25.925 0.817 11.601 2.277 23.159 3.582 34.722 3.687 32.673 12.455 64.016 25.31 94.203 29.021 68.148 75.63 122.67 132.17 169.33 46.26 38.174 97.381 68.763 151.22 94.835 11.809 5.718 19.583 13.581 25 25.548 20.328 44.915 41.132 89.621 62.353 134.12 9.365 19.639 22.362 36.438 44.125 43.891 6.593 2.258 13.347 4.195 20.166 5.62 69.026 14.425 138.08 28.721 207.13 43.037 50.803 10.534 101.64 20.93 152.4 31.623 19.412 4.089 38.727 7.377 58.117 0.396 8.133-2.928 16.326-5.83 24.13-9.509 27.155-12.801 50.064-31.592 71.704-52.023 24.542-23.172 45.969-49.116 66.583-75.752 1.562-2.02 2.552-4.483 4.561-8.093-3.226-2.64-6.39-5.047-9.351-7.683-12.94-11.52-26.306-22.614-38.634-34.759-42.443-41.807-79.331-88.092-110.96-140.36m-153.08 360.63c-87.81-18.209-175.62-36.418-264.44-54.836-0.821 4.97-1.55 8.465-1.958 11.997-4.116 35.698-8.227 71.397-12.242 107.11-3.235 28.772-6.694 57.525-9.383 86.349-2.163 23.185-3.568 46.45-4.871 69.704-2.238 39.92-4.366 79.849-6.101 119.79-1.373 31.616-2.39 63.254-3.009 94.893-0.599 30.649-1.059 61.321-0.545 91.966 0.654 38.965 2.217 77.918 3.647 116.87 0.892 24.306 1.792 48.628 3.526 72.883 2.706 37.834 5.801 75.647 9.347 113.41 2.551 27.174 5.351 54.367 9.401 81.348 5.478 36.492 12.075 72.821 18.522 109.16 12.765 71.945 31.529 142.34 55.9 211.2 20.833 58.862 46.045 115.76 78.48 169.28 40.11 66.181 88.93 124.6 151.19 171.31 16.495 12.376 34.758 17.44 54.829 18.299 19.78 0.848 39.159-2.436 58.486-5.663 37.523-6.264 73.92-17.006 110.04-28.76 39.023-12.696 77.138-27.61 113.93-45.831 2.841-1.407 5.452-3.279 8.294-5.01-1.394-2.798-2.163-4.64-3.179-6.333-15.987-26.683-28.491-55.068-39.797-83.918-34.056-86.896-62.698-175.63-87.719-265.5-13.923-50.004-26.335-100.44-38.982-150.79-17.348-69.069-31.612-138.82-44.85-208.77-6.677-35.283-12.592-70.723-18.134-106.2-5.083-32.542-9.974-65.151-13.55-97.884-4.553-41.675-8.045-83.477-11.32-125.28-1.977-25.221-3.518-50.534-3.777-75.82-0.606-59.263-1.737-118.58 6.068-177.58 2.049-15.491 3.208-31.106 5.484-46.56 6.709-45.538 16.959-90.267 31.614-133.95 0.888-2.646 1.193-5.489 1.966-9.174-2.859 0.27-4.498 0.178-5.991 0.604-20.045 5.717-40.23 4.385-60.249 0.47-29.725-5.812-59.318-12.301-90.63-18.785m1229.1 291.25c34.401 24.174 70.192 46.124 107.8 64.874 49.254 24.553 99.643 46.431 152.83 61.309 40.55 11.342 81.677 17.056 123.46 9.883 39.959-6.86 70.829-27.672 90.114-64.265 11.473-21.769 17.962-45.134 22.78-69.044 5.951-29.528 6.283-59.568 7.415-89.499 0.616-16.307-0.654-32.706 0.388-48.971 0.931-14.54 2.666-29.254 6.212-43.347 4.818-19.148 16.149-34.3 34.372-43.223 11.802-5.779 24.448-8.606 37.591-9.097 20.074-0.75 39.831 1.924 59.527 5.417 10.056 1.783 12.309 0.15 12.102-9.827-0.477-22.962-1.21-45.923-2.199-68.868-0.253-5.885-1.845-11.712-2.996-18.602-3.67 0.209-6.902 0.082-10.02 0.618-48.564 8.345-97.12 16.736-145.66 25.196-65.602 11.434-131.16 23.091-196.82 34.228-9.074 1.539-18.692 1.77-27.831 0.689-35.521-4.203-70.344-11.588-103.23-26.278-29.131-13.013-55.844-29.833-78.923-51.972-38.112-36.559-66.677-79.442-84.581-129.28-1.158-3.223-3.173-6.138-5.331-10.219-6.342 5.649-11.352 10.44-16.699 14.82-31.736 25.996-64.802 50.105-100.19 70.985-3.761 2.219-7.366 6.081-9.135 10.034-5.157 11.522-10.086 23.251-13.785 35.304-15.075 49.117-17.569 98.859-5.288 148.95 13.44 54.824 42.251 101.03 80.799 141.54 20.249 21.282 42.651 40.166 67.282 58.642m-184.15 1031.6c1.581 1.732 3.163 3.463 5.683 6.222 0.863-3.699 1.44-5.588 1.733-7.52 2.644-17.4 5.756-34.75 7.723-52.228 2.903-25.805 6.238-51.66 7.117-77.571 1.332-39.251 1.747-78.545-1.231-117.84-3.338-44.048-11.983-86.965-24.572-129.17-2.775-9.305-6.541-18.314-9.851-27.459-0.413 16.092 0.804 31.688 1.213 47.306 1.353 51.618-6.564 102.23-18.319 152.23-8.018 34.105-11.132 68.31-6.272 102.98 5.092 36.321 17.036 70.388 36.776 103.06v-0.01z" stroke="url(#m)" />
    <path d="m2263.4 1801.7c-3.428 21.686-4.406 42.658-3.339 63.64 1.65 32.425 7.725 64.03 18.845 94.646 15.825 43.566 40.637 81.562 71.379 115.87 42.015 46.886 91.952 83.879 146.06 115.44 60.893 35.512 124.41 65.398 191.38 87.706 32.019 10.665 64.747 18.248 98.183 22.515 30.64 3.91 61.12 2.468 91.16-5.181 47.467-12.086 80.875-41.952 105.05-83.386 17.045-29.217 25.734-61.264 31.699-94.222 4.877-26.941 6.606-54.13 6.879-81.471 0.213-21.325 0.549-42.66 1.525-63.958 0.36-7.865 1.595-16.064 4.394-23.358 4.656-12.132 13.735-19.057 27.625-18.974 23.814 0.142 47.017 4.732 70.328 8.707 27.231 4.645 54.379 9.959 81.751 13.544 24.633 3.227 48.405-2.698 71.368-11.382 17.759-6.715 35.261-14.109 52.903-21.137 4.331-1.725 8.676-3.525 13.166-4.719 6.511-1.732 10.406 0.037 12.805 6.243 8.177 21.147 12.12 42.987 8.552 65.621-8.105 51.421-32.021 95.616-63.369 136.22-7.105 9.203-15.927 17.075-23.1 26.232-8.604 10.983-16.724 22.414-24.125 34.233-2.429 3.879-2.419 9.541-2.74 14.439-1.35 20.584-1.165 41.347-3.803 61.752-7.116 55.017-27.576 104.72-62.646 148.05-36.93 45.627-83.288 79.134-135.18 105.76-40.505 20.787-82.711 36.926-126.77 48.1-20.963 5.316-42.151 9.927-63.444 13.69-11.733 2.073-23.89 2.304-35.861 2.367-44.312 0.232-88.64 0.677-132.94-0.23-23.908-0.489-47.8-3.182-71.632-5.563-25.171-2.515-50.356-5.206-75.369-8.936-66.337-9.89-131.31-25.563-194.61-47.885-49.101-17.313-96.857-37.664-142.58-62.676-60.171-32.912-116.1-71.849-167.63-117.12-81.328-71.454-148.39-154.61-203.84-247.41-51.937-86.922-90.751-179.47-118.86-276.56-7.768-26.825-13.547-54.223-20.414-81.313-1.242-4.896-0.523-8.667 2.423-12.975 8.914-13.03 5.95-27.868-7.282-36.463-9.485-6.162-19.558-11.415-29.293-17.2-32.507-19.318-62.207-42.307-89.741-68.206-11.401-10.724-24.017-20.201-34.998-31.314-15.442-15.627-30.42-31.789-44.634-48.539-34.435-40.578-63.479-84.756-86.34-132.91-23.712-49.945-40.628-102.12-50.574-156.47-11.829-64.628-13.18-129.74-7.346-195.07 7.26-81.283 29.998-158.1 67.401-230.54 22.572-43.718 50.389-83.947 82.757-121.01 33.639-38.516 70.722-73.473 111.16-104.68 57.272-44.204 120.75-76.701 189.88-98.227 45.026-14.02 90.974-22.754 137.99-26.186 56.346-4.113 112.65-3.806 168.5 4.987 87.995 13.853 170.01 44.06 244.55 93.382 82.868 54.831 151.37 124.06 204.93 207.68 39.354 61.439 66.608 128.1 81.915 199.58 11.355 53.023 16.391 106.67 15.223 160.79-2.366 109.61-29.262 212.8-83.743 308.25-17.863 31.295-39.121 60.415-62.285 88.043-28.956 34.535-60.288 66.724-95.035 95.543-29.567 24.522-60.627 46.889-94.186 65.594-9.714 5.415-16.623 12.402-21.878 22.296-14.545 27.389-23.218 56.616-29.33 86.768-1.12 5.527-1.805 11.143-2.857 17.594m-207.72-165.87c15.217 0.579 29.535 4.493 43.001 11.58 14.32 7.536 26.321 17.967 37.633 29.412 10.916 11.044 24.678 11.435 35.625 1.633 10.46-9.365 11.593-23.515 1.38-34.789-22.983-25.372-49.843-45.399-83.588-53.967-32.909-8.356-65.381-5.169-97.273 6.059-30.974 10.905-57.848 28.454-82.381 49.927-11.138 9.749-12.913 23.824-4.365 34.787 8.984 11.521 23.089 13.472 35.413 4.518 6.73-4.889 12.837-10.636 19.567-15.525 27.774-20.175 57.863-34.117 94.987-33.635m334.22-506.06c12.005-14.402 10.968-28.543-3.872-39.56-20.719-15.381-43.151-27.697-68.432-33.943-50.857-12.565-99.86 7.602-129.46 48.154-6.283 8.607-6.218 18.292-0.663 27.272 5.525 8.931 13.821 13.189 24.599 11.734 8.571-1.157 14.274-6.497 19.46-12.847 19.874-24.336 45.646-30.723 75.32-23.95 18.115 4.135 34.197 12.948 49.093 23.807 11.078 8.076 21.83 8.966 33.957-0.668m-593.1-20.379c-5.538-1.084-11.05-2.333-16.618-3.226-38.632-6.192-71.976 4.446-98.881 32.817-7.648 8.066-13.793 17.983-18.871 27.947-5.782 11.345-0.267 24.942 10.693 30.792 11.882 6.343 25.192 3.348 32.731-7.448 1.713-2.453 3.136-5.107 4.729-7.646 8.157-12.995 19.3-21.775 34.642-24.785 20.64-4.049 40.456-0.854 59.643 6.957 9.551 3.887 18.917 8.273 28.182 12.81 9.361 4.582 17.765 2.099 25.179-3.629 7.657-5.916 10.564-14.309 8.883-24.031-1.556-9-7.218-14.74-15.01-18.743-17.22-8.847-34.929-16.473-55.303-21.814m539.39 156.43c-16.38-23.362-41.92-28.691-65.341-22.52-31.018 8.173-48.941 41.575-39.982 73.284 8.499 30.081 41.914 48.576 72.629 40.198 38.756-10.572 55.253-54.685 32.694-90.962m-589.47 6.462c-22.013 6.043-37.158 19.845-42.652 41.909-5.691 22.856-0.481 43.438 17.853 59.757 20.581 18.319 51.401 19.767 73.744 3.625 27.107-19.584 28.794-52.545 19.01-72.974-11.083-23.142-36.096-38.76-67.955-32.317z" fill="#ccc" stroke="url(#g)" />
    <path d="m1853.3 2207.7c22.021 27.214 43.045 54.353 65.461 80.288 16.531 19.127 34.461 37.108 52.506 54.849 37.36 36.73 77.756 69.872 120.62 100.03 42.625 29.986 87.53 56.086 134.57 78.406 59.739 28.349 121.52 51.155 185.71 67.494 36.835 9.376 73.722 18.44 111.34 23.765 36.558 5.174 73.238 9.839 110.01 13.027 31.481 2.729 63.17 3.092 94.77 4.415 13.636 0.571 27.301 1.606 40.92 1.235 30.617-0.835 61.264-1.737 91.796-4.002 13.828-1.026 27.411-5.365 41.105-8.198 6.847-1.417 13.677-2.933 20.555-4.182 2.162-0.393 4.456-0.062 8.174-0.062-1.231 3.472-1.933 6.203-3.124 8.699-17.704 37.105-22.628 76.363-19.578 116.91 1.373 18.251 3.056 36.483 4.901 54.693 1.508 14.887 3.705 29.705 5.178 44.594 3.778 38.186 5.314 76.479 1.521 114.71-5.462 55.058-25.581 105.24-53.219 152.62-21.216 36.364-45.244 70.745-75.687 100.13-45.084 43.51-98.359 71.3-160.16 82.563-31.368 5.717-63.069 6.337-94.603 4.178-66.241-4.534-125.81-27.615-178.25-68.544-7.078-5.524-13.572-11.791-20.476-17.546-5.122-4.269-6.436-9.015-5.243-15.849 5.667-32.468 11.337-64.962 15.712-97.621 3.351-25.021 5.605-50.261 6.84-75.477 1.513-30.916 2.683-61.943 1.831-92.862-1.994-72.414-14.249-143.11-41.006-210.73-18.289-46.219-44.203-87.866-77.206-125.23-29.253-33.12-62.46-61.428-102.44-80.038-35.258-16.413-71.457-31.528-110.02-38.775-16.322-3.067-33.318-3.604-49.336 2.716-23.336 9.206-39.447 25.879-47.268 49.72-6.925 21.112-8.571 42.896-6.841 65.131 5.433 69.849 26.398 135.78 49.742 201.17 22.567 63.215 40.247 127.77 50.331 194.17 4.803 31.627 6.354 63.672 4.622 95.678-1.846 34.109-7.123 67.525-22.823 98.551-26.122 51.622-66.5 86.208-122.63 100.7-23.766 6.134-48.333 9.268-72.622 13.245-35.277 5.775-70.896 6.301-106.55 6.333-15.639 0.015-31.29 0.888-46.909 1.815-7.87 0.467-12.258-2.536-14.977-9.98-9.028-24.724-18.942-49.13-27.73-73.936-12.684-35.8-24.574-71.879-36.99-107.78-31.938-92.34-57.831-186.44-81.415-281.18-17.301-69.505-31.935-139.61-45.647-209.91-13.71-70.294-25.145-140.95-33.652-212.03-4.464-37.303-7.503-74.794-10.412-112.26-2.06-26.535-3.115-53.16-4.082-79.764-0.894-24.621-2.022-49.294-1.334-73.896 0.884-31.585 3.312-63.132 5.375-94.677 3.932-60.143 16.025-118.78 34.385-176.06 6.389-19.935 14.777-39.27 23.056-58.533 2.235-5.201 6.757-9.992 11.346-13.518 32.394-24.893 61.172-53.414 86.891-85.083 7.97-9.815 15.749-19.787 23.698-29.619 3.864-4.779 5.784-5.081 10.963-1.628 13.585 9.057 27.073 18.261 40.657 27.319 4.076 2.718 6.702 5.95 7.435 11.131 6.703 47.352 20.309 93.009 34.45 138.52 22.412 72.13 51.617 141.49 87.006 208.14 24.069 45.332 50.659 89.23 81.007 130.74 2.556 3.495 4.904 7.143 7.749 11.312l-3e-3 -0.027z" fill="#666" stroke="url(#f)" />
    <path d="m3372.7 1006.2c32.401 35.061 65.49 68.386 101.93 98.239 39.62 32.458 81.874 60.797 128.98 81.277 7.155 3.11 10.133 7.416 11.335 14.556 5.43 32.234 9.219 64.461 7.053 97.344-2.142 32.52-7.891 64.038-20.331 94.211-17.988 43.63-45.67 80.376-80.33 112.02-44.607 40.727-95.793 70.853-152.01 92.41-18.939 7.262-38.534 12.838-57.914 18.912-7.215 2.261-12.939 6.071-18.215 11.588-30.217 31.601-61.485 62.118-98.898 85.314-10.98 6.807-22.93 12.119-34.684 17.582-6.033 2.803-12.576 4.239-19.462 2.491-2.175-0.552-4.69-0.298-6.954 0.113-33.396 6.06-66.75 12.349-100.16 18.297-35.029 6.235-70.119 12.13-105.17 18.231-47.196 8.215-94.352 16.658-141.59 24.63-15.669 2.645-31.126 7.357-47.384 5.539-74.666-8.348-137.22-38.71-182.58-100.31-22.577-30.663-38.749-64.348-47.983-101.4-1.428-5.732-0.276-9.198 3.523-13.275 31.634-33.947 60.716-69.884 85.804-109.04 27.282-42.581 49.009-87.774 66.073-135.32 15.134-42.162 25.315-85.523 31.578-129.81 7.579-53.591 9.287-107.37 5.554-161.42-2.506-36.302-7.66-72.121-15.495-107.58-19.008-86.026-54.295-164.88-105.09-236.8-8.454-11.97-17.529-23.502-26.254-35.283-1.334-1.801-2.327-3.855-3.796-6.328 2.649-1.625 4.777-3.134 7.075-4.31 44.699-22.856 91.255-40.557 140.46-51.085 45.633-9.762 91.649-11.886 138.03-7.714 71.5 6.431 137.56 29.887 200.12 64.203 46.638 25.581 90.141 55.667 130.04 90.869 37.409 33.004 70.63 69.704 98.027 111.55 32.373 49.45 69.043 95.596 108.72 140.3l-2e-3 -1e-3z" fill="#fff" stroke="url(#e)" />
    <path d="m1390.6 1460.4c31.259 51.631 68.147 97.916 110.59 139.72 12.329 12.144 25.695 23.238 38.634 34.759 2.961 2.636 6.125 5.043 9.351 7.683-2.009 3.61-2.998 6.073-4.561 8.092-20.614 26.637-42.04 52.581-66.583 75.752-21.64 20.431-44.549 39.222-71.704 52.023-7.805 3.68-15.997 6.581-24.131 9.509-19.39 6.981-38.705 3.693-58.116-0.395-50.77-10.693-101.6-21.089-152.4-31.623-69.049-14.316-138.1-28.612-207.13-43.037-6.818-1.425-13.573-3.363-20.166-5.62-21.763-7.453-34.76-24.253-44.125-43.891-21.221-44.5-42.025-89.206-62.353-134.12-5.417-11.967-13.191-19.83-25-25.549-53.838-26.072-104.96-56.66-151.22-94.835-56.539-46.657-103.15-101.18-132.17-169.33-12.855-30.187-21.623-61.531-25.311-94.203-1.305-11.563-2.765-23.121-3.582-34.722-0.606-8.612-0.944-17.34-0.257-25.925 1.911-23.881 3.554-47.888 10.28-71.03 4.267-14.678 9.489-29.092 14.652-43.491 4.246-11.839 9.037-23.482 13.836-35.858 2.702 1.124 5.086 2.015 7.383 3.091 6.77 3.172 14.114 3.669 20.246 0.039 7.256-4.293 15.063-5.116 22.827-6.337 54.641-8.596 105.2-28.805 153.87-54.177 60.896-31.75 115.78-72.205 167.94-116.66 54.768-46.684 110-92.827 165-139.24 41.762-35.239 82.706-71.503 125.43-105.53 46.702-37.188 97.372-67.758 156.96-80.256 28.021-5.877 55.934-7.536 83.72 1.733 23.332 7.783 41.436 22.431 56.045 41.725 18.995 25.087 30.539 53.704 39.152 83.695 1.275 4.44 0.454 7.585-2.979 10.606-6.75 5.942-13.27 12.145-19.887 18.239-69.05 63.595-123.1 138.07-161.63 223.68-17.82 39.592-31.239 80.694-40.884 123.05-7.256 31.865-12.618 64.093-14.753 96.625-2.135 32.531-3.555 65.273-2.401 97.82 2.033 57.353 10.223 114.03 26.227 169.32 16.102 55.631 38.822 108.43 69.204 158.66l-4e-3 8e-3z" fill="#fff" stroke="url(#d)" />
    <path d="m1238 1820.5c30.481 6.342 60.073 12.831 89.799 18.644 20.019 3.914 40.204 5.247 60.249-0.471 1.492-0.426 3.132-0.334 5.991-0.604-0.773 3.685-1.079 6.528-1.967 9.175-14.654 43.68-24.905 88.409-31.613 133.95-2.276 15.454-3.435 31.069-5.484 46.561-7.805 58.999-6.674 118.32-6.068 177.58 0.259 25.287 1.8 50.599 3.776 75.82 3.276 41.8 6.768 83.602 11.32 125.28 3.576 32.733 8.468 65.341 13.55 97.884 5.542 35.481 11.457 70.921 18.134 106.2 13.238 69.951 27.502 139.71 44.85 208.77 12.647 50.351 25.059 100.78 38.982 150.79 25.022 89.869 53.664 178.61 87.719 265.5 11.307 28.85 23.81 57.235 39.798 83.918 1.016 1.693 1.785 3.535 3.179 6.333-2.842 1.731-5.453 3.603-8.294 5.01-36.789 18.221-74.904 33.135-113.93 45.832-36.125 11.753-72.523 22.496-110.05 28.76-19.326 3.226-38.706 6.51-58.486 5.663-20.07-0.86-38.334-5.923-54.829-18.299-62.259-46.713-111.08-105.13-151.19-171.31-32.435-53.517-57.647-110.42-78.48-169.28-24.371-68.858-43.135-139.26-55.899-211.2-6.448-36.34-13.045-72.669-18.523-109.16-4.05-26.98-6.849-54.174-9.401-81.348-3.546-37.764-6.641-75.577-9.346-113.41-1.735-24.255-2.635-48.577-3.527-72.883-1.43-38.949-2.993-77.901-3.647-116.87-0.514-30.645-0.054-61.317 0.545-91.966 0.619-31.639 1.636-63.278 3.009-94.893 1.735-39.944 3.863-79.873 6.101-119.79 1.304-23.254 2.708-46.519 4.871-69.704 2.689-28.824 6.148-57.578 9.383-86.349 4.015-35.709 8.127-71.408 12.242-107.11 0.408-3.532 1.137-7.027 1.958-11.997 88.818 18.418 176.63 36.626 265.27 54.977l8e-3 -3e-3z" fill="#fff" stroke="url(#c)" />
    <path d="m2465.8 2111.2c-24.048-18.056-46.45-36.94-66.699-58.222-38.548-40.514-67.359-86.716-80.799-141.54-12.281-50.095-9.787-99.837 5.288-148.95 3.699-12.053 8.628-23.781 13.785-35.304 1.769-3.953 5.375-7.815 9.135-10.033 35.385-20.88 68.452-44.989 100.19-70.986 5.347-4.38 10.357-9.171 16.699-14.82 2.158 4.081 4.173 6.996 5.331 10.22 17.905 49.839 46.47 92.721 84.582 129.28 23.079 22.139 49.792 38.959 78.922 51.972 32.884 14.69 67.707 22.075 103.23 26.277 9.139 1.081 18.757 0.85 27.831-0.689 65.652-11.137 131.22-22.794 196.82-34.227 48.544-8.461 97.1-16.851 145.66-25.196 3.118-0.536 6.35-0.409 10.021-0.619 1.15 6.89 2.742 12.717 2.995 18.602 0.989 22.945 1.722 45.906 2.199 68.868 0.207 9.977-2.046 11.611-12.102 9.827-19.696-3.492-39.453-6.166-59.527-5.417-13.143 0.491-25.789 3.318-37.591 9.097-18.222 8.923-29.554 24.075-34.372 43.224-3.546 14.093-5.281 28.807-6.213 43.347-1.041 16.264 0.229 32.663-0.387 48.97-1.133 29.931-1.464 59.972-7.415 89.499-4.818 23.91-11.307 47.275-22.78 69.044-19.286 36.593-50.156 57.405-90.115 64.265-41.785 7.173-82.913 1.459-123.46-9.883-53.189-14.878-103.58-36.755-152.83-61.308-37.614-18.75-73.404-40.7-108.39-65.294l-8e-3 -4e-3z" fill="#666" stroke="url(#b)" />
    <path d="m2281.9 3142.6c-19.377-32.074-31.322-66.141-36.413-102.46-4.86-34.666-1.746-68.871 6.272-102.98 11.755-49.997 19.672-100.61 18.319-152.23-0.409-15.617-1.626-31.213-1.213-47.305 3.31 9.145 7.076 18.154 9.852 27.459 12.589 42.206 21.233 85.123 24.572 129.17 2.978 39.292 2.562 78.586 1.231 117.84-0.879 25.911-4.214 51.766-7.118 77.572-1.967 17.478-5.079 34.828-7.722 52.228-0.294 1.932-0.871 3.82-1.734 7.519-2.52-2.759-4.101-4.49-6.045-6.816l-1e-3 3e-3z" fill="#fff" stroke="url(#a)" />
    <path d="m2054.7 1635.8c-36.193-0.475-66.281 13.467-94.056 33.643-6.73 4.889-12.838 10.636-19.567 15.525-12.324 8.953-26.429 7.003-35.413-4.519-8.549-10.963-6.774-25.038 4.364-34.787 24.533-21.474 51.407-39.023 82.381-49.927 31.892-11.228 64.365-14.414 97.273-6.059 33.746 8.569 60.606 28.595 83.588 53.967 10.213 11.275 9.08 25.425-1.379 34.789-10.948 9.802-24.71 9.411-35.625-1.632-11.312-11.445-23.313-21.875-37.633-29.412-13.466-7.088-27.784-11.001-43.933-11.588z" stroke="url(#l)" />
    <path d="m2389.3 1130.2c-11.59 9.13-22.342 8.24-33.42 0.164-14.896-10.859-30.979-19.673-49.093-23.807-29.675-6.773-55.446-0.386-75.32 23.95-5.186 6.349-10.889 11.69-19.46 12.847-10.777 1.455-19.074-2.804-24.599-11.734-5.555-8.98-5.62-18.665 0.663-27.272 29.601-40.553 78.604-60.719 129.46-48.154 25.28 6.246 47.713 18.562 68.432 33.943 14.841 11.017 15.878 25.157 3.336 40.063h1e-3z" stroke="url(#k)" />
    <path d="m1797.6 1109.6c19.581 5.126 37.29 12.752 54.51 21.599 7.792 4.003 13.453 9.743 15.01 18.743 1.681 9.722-1.226 18.115-8.883 24.031-7.414 5.728-15.818 8.211-25.179 3.628-9.266-4.536-18.631-8.922-28.182-12.81-19.188-7.81-39.004-11.005-59.643-6.956-15.342 3.01-26.485 11.789-34.642 24.785-1.594 2.538-3.016 5.193-4.729 7.646-7.54 10.796-20.85 13.79-32.731 7.448-10.959-5.85-16.474-19.447-10.693-30.792 5.078-9.964 11.223-19.882 18.871-27.947 26.905-28.372 60.249-39.01 98.881-32.817 5.568 0.892 11.08 2.141 17.411 3.44l-1e-3 2e-3z" stroke="url(#j)" />
    <path d="m2336.6 1266.4c22.113 35.703 5.616 79.816-33.141 90.388-30.714 8.378-64.13-10.116-72.629-40.198-8.959-31.709 8.964-65.112 39.982-73.284 23.42-6.171 48.961-0.843 65.787 23.094h1e-3z" stroke="url(#i)" />
    <path d="m1747.5 1272.1c31.042-6.302 56.055 9.316 67.138 32.459 9.783 20.429 8.096 53.39-19.01 72.974-22.342 16.142-53.163 14.694-73.744-3.626-18.334-16.319-23.544-36.901-17.853-59.757 5.494-22.064 20.639-35.867 43.469-42.051v1e-3z" stroke="url(#h)" />
</svg>