<?xml version="1.0" encoding="UTF-8"?>
<svg data-name="Layer 1" viewBox="0 0 841.59 589" xmlns="http://www.w3.org/2000/svg">
<polygon points="743.21 574.19 729.13 574.19 722.43 519.88 743.21 519.89" fill="#ffb8b8"/>
<path transform="translate(-179.2 -155.5)" d="m926 743.34-45.399-0.00169v-0.57425a17.671 17.671 0 0 1 17.671-17.67h0.00112l27.728 0.00112z" fill="#2f2e41"/>
<polygon points="805.35 539.58 796.21 550.29 750.55 520.13 764.04 504.33" fill="#ffb8b8"/>
<path transform="translate(-179.2 -155.5)" d="m997.27 701.21-29.469 34.534-0.43682-0.37273a17.671 17.671 0 0 1-1.9722-24.912l7.3e-4 -8.6e-4 17.999-21.092z" fill="#2f2e41"/>
<polygon points="643.24 307.12 638.85 347.54 816.02 345.01 738.76 219.11 675.67 216.85" fill="#2f2e41"/>
<polygon points="643.24 307.12 638.85 347.54 816.02 345.01 738.76 219.11 675.67 216.85" opacity=".28"/>
<path transform="translate(-179.2 -155.5)" d="m857.28 469.56-6.2548 36.984v33.058l50.43 16.461s-5.9037 128.4 1.9668 136.58l-0.19337 19.742 22 1 0.17941-13.894 9.3271-103.86 5.4935-76.25-8.9066-57.811z" fill="#2f2e41"/>
<path transform="translate(-179.2 -155.5)" d="m896.35 501.39-45.325 38.206s-2.6527 68.932 4.0838 77.016c5.786 6.9432 81.038 66.832 81.038 66.832s13.374 12.268 20.869 12.464 16.213-15.525 16.213-15.525l-17.358-13.188s-44.969-41.976-58.321-58.666c-5.3892-6.7365-5.3892-7.4102-5.3892-7.4102l1.8406-28.014 18.525-51.991z" fill="#2f2e41"/>
<polygon points="669.02 162.88 649.48 161.08 631.76 164.03 594.22 164.04 591.02 191.25 625.28 198.91 633.62 194.82 668.42 208.08" fill="#2f2e41"/>
<path transform="translate(-179.2 -155.5)" d="m871.57 318.3s41.474-3.886 50.905 3.5241 29.641 154.27 29.641 154.27l-80.545 4.5458-14.44-9.935 4.0988-73.317z" fill="#ccc"/>
<polygon points="705.02 161.88 659.28 162.89 616.62 355.62 650.3 363.03" fill="#2f2e41"/>
<polygon points="737.55 160.26 773.58 171.54 771.54 250.72 816.02 345.4 763.72 350.9 722.39 248.68" fill="#2f2e41"/>
<path transform="translate(-179.2 -155.5)" d="m976.18 510.51a11.513 11.513 0 0 0-0.43624-17.649l7.2498-25.291-14.295-8.1543-9.7365 35.86a11.576 11.576 0 0 0 17.218 15.234z" fill="#ffb8b8"/>
<path transform="translate(-179.2 -155.5)" d="m931.91 329.23 21.323-1.8496s19.143 20.022 23.498 35.524 9.0707 64.005 9.0707 64.005l-1.9671 70.955-24.925-16.926-1.6717-61.031z" fill="#2f2e41"/>
<circle transform="translate(44.353 779.63) rotate(-61.337)" cx="900.24" cy="279.07" r="30.227" fill="#ffb8b8"/>
<path transform="translate(-179.2 -155.5)" d="m896.87 266.45c-3.9658-0.91637-8.0827 0.09909-12.099 0.75737s-8.4434 0.87528-11.841-1.3659c-2.5093-1.6551-4.052-4.3933-5.5007-7.0271a8.0881 8.0881 0 0 1-1.1832-3.1006c-0.17057-1.9479 1.0686-3.7251 2.3844-5.1715 6.112-6.7185 15.044-10.396 24.051-11.564a41.554 41.554 0 0 1 21.961 2.6818c6.8375 2.9989 12.715 8.4908 15.403 15.456a43.894 43.894 0 0 1 2.3005 11.038 32.97 32.97 0 0 1 0.15507 8.3591 35.832 35.832 0 0 1-1.62 6.056l-4.453 13.446a8.8586 8.8586 0 0 1-1.751 3.466 3.0293 3.0293 0 0 1-3.5474 0.77718 11.04 11.04 0 0 0 0.15962-4.4605 3.7638 3.7638 0 0 0-2.9697-2.9949c-1.6413-0.17418-3.0434 1.0981-4.6004 1.6461a5.6595 5.6595 0 0 1-7.0346-3.8176q-0.06393-0.21546-0.11053-0.43552c-0.24579-1.5372 0.1669-3.1829-0.41576-4.6265-0.68269-1.6914-2.493-2.5776-3.853-3.7929a8.8686 8.8686 0 0 1-2.4334-9.2168c0.36409-1.119 1.3924-1.6277 1.1866-2.9132-0.26993-1.6865-2.7564-2.8656-4.1885-3.1965z" fill="#2f2e41"/>
<path transform="translate(-179.2 -155.5)" d="m560.82 394.23h-381.61v-238.73h381.61z" fill="#fff"/>
<path transform="translate(-179.2 -155.5)" d="m560.82 394.23h-381.61v-238.73h381.61zm-379.87-1.7425h378.13v-235.24h-378.13z" fill="#3f3d56"/>
<path transform="translate(-179.2 -155.5)" d="m514.2 724.87h-217.81v-238.73h217.81z" fill="#fff"/>
<path transform="translate(-179.2 -155.5)" d="m514.2 724.87h-217.81v-238.73h217.81zm-216.07-1.7425h214.33v-235.24h-214.33z" fill="#3f3d56"/>
<rect x="260.07" y="546.82" width="45.306" height="1.8367" fill="#3f3d56"/>
<rect x="260.07" y="552.33" width="45.306" height="1.8367" fill="#3f3d56"/>
<rect x="260.07" y="557.84" width="45.306" height="1.8367" fill="#3f3d56"/>
<path transform="translate(-179.2 -155.5)" d="m405.3 528.84v19.168a57.503 57.503 0 0 1 40.661 98.164l13.554 13.554a76.671 76.671 0 0 0-54.214-130.89z" fill="#e6e6e6"/>
<path transform="translate(-179.2 -155.5)" d="m459.51 659.72-13.554-13.554a57.489 57.489 0 0 1-75.451 5.1157l-11.601 15.265a76.669 76.669 0 0 0 100.61-6.8272z" fill="#575a89"/>
<path transform="translate(-179.2 -155.5)" d="m347.79 605.51a57.503 57.503 0 0 1 57.503-57.503v-19.168a76.67 76.67 0 0 0-46.392 137.71l11.602-15.265a57.403 57.403 0 0 1-22.713-45.777z" class="currentColor"/>
<path transform="translate(-179.2 -155.5)" d="m836.57 576.75h-217.81v-238.73h217.81z" fill="#fff"/>
<path transform="translate(-179.2 -155.5)" d="m836.57 576.75h-217.81v-238.73h217.81zm-216.07-1.7425h214.33v-235.24h-214.33z" fill="#3f3d56"/>
<rect x="470.92" y="328.47" width="39.207" height="62.731" fill="#575a89"/>
<rect x="527.55" y="285.77" width="39.207" height="105.42" fill="#e6e6e6"/>
<rect x="584.18" y="236.11" width="39.207" height="155.08" class="currentColor"/>
<polygon points="636.46 392.94 460.46 392.94 460.46 210.84 462.2 210.84 462.2 391.2 636.46 391.2" fill="#3f3d56"/>
<circle cx="594.02" cy="176.88" r="12" fill="#ffb8b8"/>
<path transform="translate(-179.2 -155.5)" d="m1019.8 744.5h-187a1 1 0 0 1 0-2h187a1 1 0 0 1 0 2z" fill="#ccc"/>
<path transform="translate(-179.2 -155.5)" d="m507.82 344.3h-275.62a0.86259 0.86259 0 0 1-0.86256-0.86255v-132.1a0.86256 0.86256 0 0 1 1.7251 0v131.24h274.76a0.86256 0.86256 0 1 1 0 1.7251z" fill="#3f3d56"/>
<path transform="translate(-179.2 -155.5)" d="m291.09 334.81h-25.069a2.5634 2.5634 0 0 1-2.5605-2.5603v-34.557a2.5634 2.5634 0 0 1 2.5605-2.5603h25.069a2.5634 2.5634 0 0 1 2.5605 2.5603v34.557a2.5634 2.5634 0 0 1-2.5605 2.5603z" class="currentColor"/>
<path transform="translate(-179.2 -155.5)" d="m336.8 334.81h-25.069a2.5634 2.5634 0 0 1-2.5605-2.5603v-67.334a2.5634 2.5634 0 0 1 2.5605-2.5603h25.069a2.5634 2.5634 0 0 1 2.5605 2.5603v67.334a2.5634 2.5634 0 0 1-2.5605 2.5603z" class="currentColor"/>
<path transform="translate(-179.2 -155.5)" d="m382.52 334.81h-25.069a2.5634 2.5634 0 0 1-2.5605-2.5603v-34.557a2.5634 2.5634 0 0 1 2.5605-2.5603h25.069a2.5634 2.5634 0 0 1 2.5605 2.5603v34.557a2.5634 2.5634 0 0 1-2.5605 2.5603z" class="currentColor"/>
<path transform="translate(-179.2 -155.5)" d="m428.24 334.81h-25.069a2.5073 2.5073 0 0 1-2.5605-2.4443v-80.505a2.5073 2.5073 0 0 1 2.5605-2.4443h25.069a2.5073 2.5073 0 0 1 2.5605 2.4443v80.505a2.5073 2.5073 0 0 1-2.5605 2.4443z" class="currentColor"/>
<path transform="translate(-179.2 -155.5)" d="m473.95 334.81h-25.069a2.5634 2.5634 0 0 1-2.5605-2.5603v-103.56a2.5634 2.5634 0 0 1 2.5605-2.5603h25.069a2.5634 2.5634 0 0 1 2.5605 2.5603v103.56a2.5634 2.5634 0 0 1-2.5605 2.5603z" class="currentColor"/>
<circle cx="99.35" cy="124.11" r="5.1754" fill="#3f3d56"/>
<circle cx="145.07" cy="90.467" r="5.1754" fill="#3f3d56"/>
<circle cx="190.78" cy="124.11" r="5.1754" fill="#3f3d56"/>
<circle cx="236.5" cy="74.078" r="5.1754" fill="#3f3d56"/>
<circle cx="282.21" cy="55.102" r="5.1754" fill="#3f3d56"/>
<polygon points="190.89 125.27 145.07 90.943 99.867 124.8 98.833 123.42 145.07 88.787 190.67 122.95 235.99 73.352 236.18 73.278 281.89 54.858 282.54 56.459 237 74.805" fill="#3f3d56"/>
</svg>
