<?xml version="1.0" encoding="UTF-8"?>
<svg data-name="Layer 1" viewBox="0 0 868.98 474.67" xmlns="http://www.w3.org/2000/svg">
<path transform="translate(-165.51 -212.66)" d="m212.97 644.95c-18.517 15.79-22.361 41.687-22.361 41.687s26.179 0.29707 44.697-15.493 22.361-41.687 22.361-41.687-26.179-0.29701-44.697 15.493z" fill="#f2f2f2"/>
<path transform="translate(-165.51 -212.66)" d="m221.53 651.23c-7.8877 23.022-30.565 36.105-30.565 36.105s-9.8886-24.242-2.0009-47.263 30.565-36.105 30.565-36.105 9.8887 24.242 2.001 47.263z" fill="#f2f2f2"/>
<path transform="translate(-165.51 -212.66)" d="m414.81 310.63c-4.1899-5.429-10.111-10.452-10.486-17.152-0.34375-6.1445 4.2378-12.245 2.3057-18.123-1.4858-4.5198-6.3872-7.2471-11.177-8.6913a43.439 43.439 0 0 0-27.916 1.0747l0.48486-0.34192c-5.4521-1.9421-11.825 0.0628-16.115 3.7763-4.29 3.7134-6.8394 8.8607-8.8174 14.019-1.9785 5.1582-3.5112 10.505-6.2598 15.341-2.749 4.8358-6.9575 9.2336-12.51 10.905 1.8589 3.708 7.6699 4.98 11.078 2.425a14.014 14.014 0 0 0 2.3311-2.4098q3.4094-4.146 6.8193-8.2919c2.3389 4.1598-1.1553 9.9011 1.7197 13.752 1.4824 1.986 4.1899 2.7402 6.7046 3.2811a121.28 121.28 0 0 0 59.331-2.2007c1.5503-0.45685 3.2608-1.086 3.9038-2.4892 0.74268-1.62-0.2959-3.4464-1.3975-4.874z" fill="#2f2e41"/>
<path transform="translate(-165.51 -212.66)" d="m470.54 331.81a10.527 10.527 0 0 0-0.2393 1.6401l-42.957 24.782-10.441-6.0109-11.131 14.572 17.45 12.438a8 8 0 0 0 9.5982-0.23384l44.297-34.946a10.497 10.497 0 1 0-6.5757-12.241z" fill="#ffb7b7"/>
<path transform="translate(-165.51 -212.66)" d="m425.91 359.41-13.884 17.994a4.5 4.5 0 0 1-6.8039 0.37268l-15.717-16.321a12.497 12.497 0 0 1 15.327-19.744l19.713 11.023a4.5 4.5 0 0 1 1.3654 6.6759z" class="primaryColor"/>
<polygon points="241.29 460.27 253.55 460.27 259.38 412.98 241.29 412.98" fill="#ffb7b7"/>
<path transform="translate(-165.51 -212.66)" d="m403.67 668.93 24.144-1e-3h1e-3a15.387 15.387 0 0 1 15.386 15.386v0.5l-39.531 0.00147z" fill="#2f2e41"/>
<polygon points="157.29 460.27 169.55 460.27 175.38 412.98 157.29 412.98" fill="#ffb7b7"/>
<path transform="translate(-165.51 -212.66)" d="m319.67 668.93 24.144-1e-3h1e-3a15.387 15.387 0 0 1 15.386 15.386v0.5l-39.531 0.00147z" fill="#2f2e41"/>
<circle transform="translate(-128.25 432.17) rotate(-83.736)" cx="378.37" cy="301.63" r="21.188" fill="#ffb7b7"/>
<path transform="translate(-165.51 -212.66)" d="m390.77 333.39 12.482 6.1837s13.947 24.237 5.9465 47.237c-3.8841 11.167 7.0535 46.763 7.0535 46.763s16.947 161.24 17 211c-21.053 3.237-41.053 7.237-42.053-2.763s-11.947-128.24-11.947-128.24-15.053 131.24-27.053 133.24-36-1-36-1 19.053-192.24 32.053-204.24l2-10-0.05349-89.763 14.978-7.1477z" fill="#2f2e41"/>
<path transform="translate(-165.51 -212.66)" d="m346.12 469.66a10.743 10.743 0 0 0 3.2911-16.14l14.517-96.762-18.966-0.91048-11.316 96.361a10.801 10.801 0 0 0 12.474 17.451z" fill="#ffb7b7"/>
<path transform="translate(-165.51 -212.66)" d="m363.51 381-22.682-1.432a4.5 4.5 0 0 1-4.1175-5.4294l4.7262-22.16a12.497 12.497 0 0 1 24.94 1.648l1.901 22.505a4.5 4.5 0 0 1-4.7676 4.8684z" class="primaryColor"/>
<path transform="translate(-165.51 -212.66)" d="m990.4 289.25h-501.59a13.806 13.806 0 0 0-13.806 13.806v279.48a13.806 13.806 0 0 0 13.806 13.806h501.59a13.806 13.806 0 0 0 13.806-13.806v-279.48a13.806 13.806 0 0 0-13.806-13.806z" fill="#3f3d56"/>
<rect x="328" y="100.98" width="492.19" height="277.64" fill="#fff"/>
<circle cx="573.67" cy="88.363" r="5.048" fill="#fff"/>
<polygon points="679.42 378.63 328 378.63 328 100.98" fill="#f2f2f2" style="isolation:isolate"/>
<path transform="translate(-165.51 -212.66)" d="M1018.02127,586.24353H969.987v-3.46086a.68617.68617,0,0,0-.68614-.68619h-16.469a.68618.68618,0,0,0-.68624.68614v3.46091H941.85279v-3.46086a.68618.68618,0,0,0-.68619-.68619H924.69772a.68618.68618,0,0,0-.6862.68619h0v3.46086h-10.293v-3.46086a.68618.68618,0,0,0-.6862-.68619H896.56338a.68618.68618,0,0,0-.6862.68619h0v3.46086h-10.293v-3.46086a.68618.68618,0,0,0-.68619-.68619H868.42909a.68617.68617,0,0,0-.6862.68614v3.46091h-10.293v-3.46086a.68618.68618,0,0,0-.6862-.68619H840.2948a.68618.68618,0,0,0-.6862.68619h0v3.46086H829.31553v-3.46086a.68618.68618,0,0,0-.68619-.68619H812.16046a.68618.68618,0,0,0-.6862.68619h0v3.46086h-10.293v-3.46086a.68618.68618,0,0,0-.6862-.68619H671.48891a.68618.68618,0,0,0-.6862.68619h0v3.46086H660.50964v-3.46086a.68618.68618,0,0,0-.6862-.68619H643.35462a.68618.68618,0,0,0-.6862.68619h0v3.46086H632.37535v-3.46086a.68617.68617,0,0,0-.68615-.68619H615.22028a.68618.68618,0,0,0-.6862.68619h0v3.46086H604.241v-3.46086a.68618.68618,0,0,0-.6862-.68619H587.08594a.68618.68618,0,0,0-.6862.68619h0v3.46086h-10.293v-3.46086a.68618.68618,0,0,0-.6862-.68619H558.95165a.68618.68618,0,0,0-.6862.68619h0v3.46086H547.97238v-3.46086a.68618.68618,0,0,0-.6862-.68619H530.81731a.68619.68619,0,0,0-.6862.68614v3.46091h-10.293v-3.46086a.68618.68618,0,0,0-.68617-.68619H502.683a.6862.6862,0,0,0-.6862.68619h0v3.46086H470.43146a16.46886,16.46886,0,0,0-16.46885,16.46887v7.44683a16.46885,16.46885,0,0,0,16.46885,16.46883h547.58981a16.46888,16.46888,0,0,0,16.46888-16.46883V602.7124A16.46885,16.46885,0,0,0,1018.02127,586.24353Z" fill="#3f3d56"/>
<path transform="translate(-165.51 -212.66)" d="m749.07 554.89a12.089 12.089 0 0 1-0.55394 1.1432 14.627 14.627 0 0 1-4.433 4.987 14.564 14.564 0 0 1-22.946-11.91v-2.3506h1.9948a50.942 50.942 0 0 0 25.938 8.1308z" fill="#3f3d56"/>
<path transform="translate(-165.51 -212.66)" d="m777.53 547.44v1.6623a14.559 14.559 0 0 1-27.344 6.9701 12.16 12.16 0 0 1-0.57729-1.1724c0.42578 0.01168 0.84557 0.01752 1.2716 0.01752a51.018 51.018 0 0 0 26.65-7.4776z" fill="#3f3d56"/>
<path transform="translate(-165.51 -212.66)" d="m797.15 371.66c-0.43746-0.06415-0.88061-0.105-1.324-0.13414a48.982 48.982 0 0 1 0.97431 36.577c0.44315-0.05247 0.88061-0.12246 1.3181-0.20413a18.374 18.374 0 0 0-0.96833-36.239z" fill="#3f3d56"/>
<path transform="translate(-165.51 -212.66)" d="m705.93 371.52c-0.44344 0.02915-0.88659 0.07-1.324 0.13414a18.374 18.374 0 0 0-0.96832 36.239c0.43745 0.08167 0.87491 0.15166 1.3181 0.20413a48.986 48.986 0 0 1 0.97431-36.577z" fill="#3f3d56"/>
<path transform="translate(-165.51 -212.66)" d="m797.15 371.66a50.156 50.156 0 1 0 3.8907 19.365 50.228 50.228 0 0 0-3.8907-19.365zm-0.34974 36.443a48.982 48.982 0 1 1 3.0739-17.078 49.067 49.067 0 0 1-3.0739 17.078z" fill="#3f3d56"/>
<path transform="translate(-165.51 -212.66)" d="m776.54 379.65h-51.328a10.207 10.207 0 0 0 0 20.415h51.328a10.207 10.207 0 0 0 0-20.415z" fill="#3f3d56"/>
<path transform="translate(-165.51 -212.66)" d="M796.80182,478.18517q-.28025-.51623-.57758-1.01489c-.00569-.01168-.01167-.01752-.01737-.02916a52.4736,52.4736,0,1,0-47.6944,78.88794c.55394.02915,1.11386.04663,1.67378.04663.23354.01168.46081.01168.69435.01168a52.10841,52.10841,0,0,0,26.6498-7.2851A52.84318,52.84318,0,0,0,797.91,526.9003c.00569-.01167.01168-.01751.01737-.02919.17515-.35.34433-.70574.5135-1.06737a52.41937,52.41937,0,0,0-1.639-47.61857Zm.50154,47.29774q-.25376.54251-.52489,1.06741a51.68613,51.68613,0,0,1-19.24807,20.89291,51.01779,51.01779,0,0,1-26.6498,7.47759c-.42607,0-.84586-.00584-1.27164-.01752q-.27128,0-.54255-.01748a51.32636,51.32636,0,1,1,45.97391-77.41807c.0057.01164.01168.01748.01737.02916.20421.33247.40243.67074.58926,1.00905a51.263,51.263,0,0,1,1.65641,46.97695Z" fill="#3f3d56"/>
<path transform="translate(-165.51 -212.66)" d="m791.23 479.74a6.0669 6.0669 0 0 0-3.4997-1.1257h-22.94a6.0252 6.0252 0 1 0 0 12.05h22.94a5.9588 5.9588 0 0 0 1.219-0.1225 6.6194 6.6194 0 0 0 1.1666-0.36747 6.0228 6.0228 0 0 0 1.1142-10.435z" fill="#3f3d56"/>
<circle cx="600.8" cy="271.97" r="3.059" fill="#f1f1f1"/>
<circle cx="610.74" cy="271.97" r="3.059" fill="#f1f1f1"/>
<circle cx="620.69" cy="271.97" r="3.059" class="primaryColor"/>
<path transform="translate(-165.51 -212.66)" d="m901.41 383.82c-7.955 4.7708-22.128 10.749-36.611 4.6053l-9.3623-3.9713 18.761-21.031a89.602 89.602 0 1 1 27.212 20.397z" fill="#fff"/>
<path transform="translate(-165.51 -212.66)" d="m901.46 384.95c-7.6439 4.4878-22.205 10.69-37.051 4.3921l-10.647-4.5161 19.094-21.404a90.602 90.602 0 1 1 128.58 6.9141 90.198 90.198 0 0 1-99.977 14.614zm104.74-141.25a88.602 88.602 0 1 0-131.26 119.05l0.60425 0.6665-18.431 20.661 8.0776 3.4263c14.338 6.082 28.525-0.23584 35.706-4.5425l0.46423-0.27881 0.48706 0.23682a88.602 88.602 0 0 0 104.35-139.22z" class="primaryColor"/>
<path transform="translate(-165.51 -212.66)" d="m1016.2 302.67a82.46 82.46 0 0 0-75.168-82.132c2.4018-0.2104 4.8314-0.32424 7.2878-0.32424a82.456 82.456 0 0 1 0 164.91c-2.4527 0-4.8781-0.11531-7.2763-0.32526a82.46 82.46 0 0 0 75.157-82.131z" opacity=".1" style="isolation:isolate"/>
<rect x="727.77" y="73.559" width="58.92" height="5.4715" class="primaryColor"/>
<rect x="727.77" y="92.487" width="102.69" height="5.4715" class="primaryColor"/>
<rect x="727.77" y="111.41" width="102.59" height="5.4715" class="primaryColor"/>
<path transform="translate(-165.51 -212.66)" d="m547.51 685.86h-381a1 1 0 0 1 0-2h381a1 1 0 0 1 0 2z" fill="#cbcbcb"/>
<path transform="translate(-165.51 -212.66)" d="m400.58 287.86c-0.82568-3.7454-3.5073-6.8485-6.5967-9.1212a27.017 27.017 0 0 0-34.537 2.1002 17.649 17.649 0 0 0-5.334 8.5492 10.486 10.486 0 0 0 2.2349 9.5481l0.42334 0.26514c-0.38379-1.628 0.88086-3.2548 2.3916-3.973a19.11 19.11 0 0 1 4.8784-1.0938 17.935 17.935 0 0 0 12.157-8.5784 20.254 20.254 0 0 0 11.607 12.097c2.8003 1.0951 10.492 2.601 13.158 1.2106 3.4009-1.7733 0.44341-7.2581-0.38231-11.004z" fill="#2f2e41"/>
</svg>
